<svg width="537" height="105" viewBox="0 0 537 105" fill="none" xmlns="http://www.w3.org/2000/svg">
<path d="M448.393 0C450.741 0.056239 453.089 0.0492228 455.437 0.0140735L455.381 0.506152C458.066 0.288226 460.682 0.857653 463.262 1.54658V2.10896C463.571 2.06678 464.197 1.98244 464.513 1.94729L464.675 2.93848C465.005 2.826 465.673 2.59404 466.003 2.47453L465.905 3.21969C466.65 3.57822 467.395 3.93673 468.147 4.30932L468.021 4.97013L468.534 4.95607C468.97 5.51846 469.413 6.08085 469.87 6.64324C470.144 6.99473 470.685 7.68366 470.959 8.02812C470.917 8.27417 470.826 8.7522 470.784 8.99825L471.62 8.98418C471.641 10.2144 471.669 11.4376 471.697 12.6678C471.852 12.6046 472.147 12.471 472.302 12.4077C472.281 14.3831 472.281 16.3585 472.281 18.3339L471.69 18.0527C471.641 19.297 471.571 20.5413 471.543 21.7926L471.058 21.7364C470.53 23.3462 470.123 24.9982 470.073 26.7065L469.638 26.4886C469.237 28.717 468.105 30.7487 467.901 33.0193L467.522 32.8928C467.142 35.1213 465.968 37.1318 465.764 39.3954L465.469 39.2267C465.117 40.4147 464.717 41.5958 464.386 42.7979L463.922 42.7276C463.873 43.1634 463.761 44.0211 463.711 44.4569C463.43 45.3075 463.177 46.1652 462.952 47.0369L462.46 46.9033C462.439 47.3603 462.397 48.2671 462.376 48.717C461.581 50.2003 461.061 51.8172 460.949 53.5044C460.794 53.42 460.492 53.2513 460.344 53.1669C460.33 53.7645 460.316 54.9666 460.309 55.5712L459.873 55.4165C459.508 56.6186 459.093 57.8066 458.776 59.0228L458.474 58.9455C458.228 59.768 457.968 60.5834 457.701 61.4059C457.645 61.8488 457.525 62.7346 457.462 63.1775L456.878 63.1001C456.773 64.5624 456.26 65.9332 455.353 67.0931C455.423 67.3321 455.564 67.8102 455.627 68.0492L454.713 68.1968C454.727 68.4358 454.755 68.9209 454.769 69.1599C454.544 69.6028 454.095 70.4956 453.87 70.9384L453.279 71.0158C453.321 71.2618 453.399 71.7398 453.441 71.9859C452.703 72.71 452.056 73.5114 451.704 74.5026L451.444 74.4885C450.826 75.3954 450.186 76.2882 449.574 77.195L449.328 77.181C449.082 77.427 448.583 77.9191 448.33 78.1581L448.506 78.6643L447.662 78.5307L447.683 79.065C446.481 79.8172 445.399 80.7451 444.541 81.8769C443.711 82.2636 442.882 82.6502 442.052 83.0158L442.01 83.7961C441.778 83.7328 441.328 83.6063 441.103 83.543C440.253 84.5342 439.114 85.0193 437.849 85.1388L437.82 85.891C437.603 85.8558 437.16 85.7926 436.942 85.7574C436.063 86.0245 435.191 86.2776 434.313 86.5166L434.397 87.0579C433.504 87.079 432.625 87.1072 431.747 87.1564C425.813 89.1177 419.346 88.5061 413.258 87.6766L413.364 87.0509C412.386 87.065 411.416 87.079 410.453 87.1001L410.474 86.4463C409.532 86.1159 408.597 85.7785 407.641 85.5184L407.697 85.2021C406.081 84.3725 404.724 83.1071 403.908 81.4762L403.508 81.4692C403.198 80.5131 402.868 79.5782 402.587 78.6291L402.045 78.7557C401.989 77.2934 401.926 75.8242 401.905 74.369L401.258 74.4323C401.849 72.3093 402.074 70.1089 402.095 67.9156L402.692 68.239C402.72 67.6696 402.784 66.5377 402.819 65.9683L403.177 65.9894C403.318 64.9209 403.522 63.8664 403.922 62.8681C404.204 62.123 404.499 61.3778 404.808 60.6467C404.78 60.4077 404.724 59.9226 404.703 59.6836L405.441 59.7399C405.469 58.5167 405.497 57.2935 405.539 56.0773C405.687 56.1195 405.996 56.2038 406.151 56.246C406.383 55.058 406.699 53.891 406.987 52.717C407.17 52.71 407.529 52.6819 407.711 52.6748C407.683 52.1265 407.627 51.0369 407.599 50.4885C407.761 50.5167 408.084 50.5589 408.246 50.5799C408.562 49.1388 408.935 47.7118 409.223 46.2706L409.68 46.4042C409.806 45.5747 409.961 44.7522 410.144 43.9367C410.798 42.6713 411.205 41.3075 411.325 39.8875C411.437 39.9367 411.648 40.0351 411.761 40.0843C411.993 38.4183 412.499 36.8014 413.307 35.3251C413.293 35.1915 413.258 34.9314 413.237 34.7979C413.722 33.8418 414.172 32.8717 414.629 31.9016C414.65 31.4446 414.685 30.5237 414.706 30.0597L415.156 30.2566C415.416 29.3357 415.719 28.4218 416.049 27.5219L415.929 26.6995C416.154 26.6924 416.604 26.6713 416.829 26.6643C416.808 26.123 416.773 25.0334 416.759 24.4851L417.574 24.4007C417.539 24.1968 417.469 23.7891 417.427 23.5852C417.659 22.9385 418.123 21.6309 418.348 20.9771C418.446 20.9912 418.636 21.0263 418.734 21.0404C419.163 18.6502 420.632 16.6819 421.842 14.6362L422.495 14.6151C422.46 14.2988 422.39 13.659 422.362 13.3427L423.156 13.3146L423.135 12.5202L423.641 12.6608C423.796 12.3796 424.098 11.8242 424.253 11.5501C425.335 10.3409 426.467 9.17399 427.761 8.18278C428.021 8.00001 428.548 7.62741 428.808 7.44463L428.717 6.90334L429.574 7.05096L429.532 6.10896C429.778 6.17223 430.263 6.29174 430.502 6.35501C431.24 5.6239 432.063 4.96309 433.082 4.65377L432.991 4.26714C433.933 3.97891 434.882 3.67664 435.838 3.39544L435.711 2.75572C436.267 2.74869 437.385 2.72057 437.94 2.71354L437.989 1.8559C438.291 1.94026 438.889 2.10194 439.191 2.1863L439.17 1.51142C442.277 1.25834 445.272 0.105455 448.443 0.534277L448.393 0ZM445.652 16L445.673 16.8225L444.857 16.7733L444.935 17.6379L444.007 17.5606C444.07 17.7926 444.197 18.2566 444.26 18.4886C443.451 19.6977 442.805 21.0264 442.594 22.4815L442.263 22.3058C442.095 23.1423 441.905 23.9789 441.708 24.8155C441.047 26.0949 440.653 27.4798 440.534 28.9209L440.239 28.7381C439.936 29.6028 439.62 30.4605 439.29 31.3181C439.332 31.5501 439.416 32.014 439.458 32.246L438.643 32.1828C438.608 32.6397 438.537 33.5606 438.502 34.0176C438.088 34.9455 437.687 35.8875 437.265 36.8154C437.223 37.181 437.146 37.9121 437.11 38.2777C436.773 38.9385 436.443 39.6063 436.126 40.2812C435.943 41.1388 435.782 42.0035 435.634 42.8752L435.262 42.7487C435.072 44.1335 434.65 45.4692 434.059 46.7416C433.849 47.5641 433.673 48.4007 433.525 49.2443L433.089 49.0685C431.789 53.4903 430.291 57.8629 428.724 62.1933C428.717 62.3269 428.71 62.601 428.71 62.7346C427.599 65.905 426.207 69.0404 425.82 72.4077C426.706 72.4007 427.613 72.4007 428.52 72.4007C428.871 71.6414 429.23 70.8822 429.588 70.13L429.954 70.1933C430.284 69.0263 430.671 67.8734 431.016 66.7135L431.381 66.7697C431.543 65.9472 431.726 65.1318 431.943 64.3233C432.457 63.2548 432.885 62.1371 433.124 60.9701L433.567 61.181C433.617 60.717 433.729 59.7891 433.785 59.3251C434.059 58.4815 434.313 57.6309 434.559 56.7803L435.023 56.9771C435.051 56.5061 435.114 55.5782 435.142 55.1072C435.451 54.2987 435.74 53.4833 436.014 52.6608L436.407 52.6959C436.421 52.1335 436.443 51.0017 436.457 50.4393L437.103 50.5659C437.131 50.123 437.181 49.2302 437.202 48.7873C437.61 47.8805 438.01 46.9666 438.432 46.0597C439.072 44.246 439.845 42.4534 440.119 40.5413L440.499 40.8084C440.731 39.4306 441.103 38.0879 441.532 36.7592C442.298 34.5589 443.128 32.3726 443.662 30.1019L444.161 30.1933C444.168 29.638 444.182 28.5272 444.197 27.9719L444.745 28.0281C445.406 25.1529 446.91 22.5026 447.142 19.522L447.634 19.6766C447.641 18.4183 447.676 17.1599 447.719 15.9086C447.023 15.9367 446.334 15.9648 445.652 16Z" fill="#FF7F26"/>
<path d="M254.524 1.37083C261.476 1.30053 268.429 1.32865 275.381 1.34271C275.388 1.87698 275.402 2.95254 275.409 3.48681L274.819 3.39544C274.805 3.91565 274.77 4.96309 274.756 5.49033L274.046 5.46222C274.038 6.03867 274.031 7.18453 274.024 7.76098L273.504 7.56415C273.153 9.04042 272.773 10.5097 272.534 12.014C272.379 11.9437 272.077 11.7891 271.923 11.7188C271.923 12.3163 271.923 13.5185 271.923 14.116L271.437 13.9192C271.037 15.3533 270.622 16.7803 270.397 18.2566L269.638 18.2495C269.68 18.4604 269.764 18.8752 269.807 19.0791C269.469 19.9859 269.181 20.9069 268.935 21.8489L268.506 21.5887C268.464 22.0457 268.379 22.9596 268.337 23.4165C268.035 24.2601 267.761 25.1107 267.522 25.9754L267.058 25.8699C267.058 26.4604 267.058 27.6344 267.058 28.2179L266.566 27.8523C266.327 28.7662 266.067 29.6801 265.785 30.587C265.729 31.0228 265.624 31.8945 265.567 32.3304L264.942 32.1124C264.942 32.71 264.935 33.9121 264.928 34.5096L264.45 34.3409C264.246 35.1634 264.014 35.9859 263.768 36.8014C263.009 38.5307 262.2 40.2671 261.989 42.1652C261.842 42.1371 261.546 42.0879 261.399 42.0597C261.42 42.6151 261.455 43.7258 261.476 44.2812L260.956 44.246C260.717 45.0755 260.464 45.9051 260.19 46.7276C260.133 47.1775 260.028 48.0773 259.972 48.5272L259.29 48.3725C259.29 49.1037 259.283 50.5799 259.283 51.311C259.037 51.304 258.545 51.2899 258.299 51.2759L258.819 52.5272C258.608 52.5272 258.193 52.5272 257.982 52.5272C257.947 53.2794 257.877 54.7908 257.835 55.543C257.687 55.4868 257.392 55.3743 257.237 55.3181C256.611 57.2653 255.845 59.1775 255.55 61.2232C255.466 61.1458 255.297 61.0052 255.205 60.9349C254.903 63.1704 253.624 65.1388 253.483 67.4095L252.717 67.4727C252.857 67.7961 253.132 68.4358 253.272 68.7522C253.068 68.7522 252.661 68.7381 252.457 68.7381C252.443 71.0439 250.945 72.9701 250.805 75.2548C250.636 75.2056 250.306 75.1142 250.137 75.065C250.13 75.6485 250.102 76.8084 250.088 77.3919L249.209 77.2794C249.343 77.6028 249.603 78.2425 249.736 78.5588C249.504 78.5588 249.04 78.5659 248.801 78.5659C248.815 79.1493 248.85 80.3163 248.865 80.8927C248.682 80.8576 248.323 80.7803 248.14 80.7381C248.098 81.4692 248 82.9384 247.951 83.6766H247.149C247.276 83.9859 247.536 84.6186 247.669 84.9349C247.43 84.9349 246.959 84.9349 246.72 84.9349C246.699 85.4692 246.664 86.5377 246.643 87.072C239.585 87.1283 232.527 87.1142 225.469 87.072C225.258 77.0615 226.826 67.1353 226.144 57.1177C225.856 58.8752 225.35 60.5623 224.611 62.1862C224.281 63.2196 224.084 64.2812 223.908 65.3567L223.198 65.2091L223.733 66.2565L222.868 65.7926C222.805 66.826 222.742 67.8594 222.678 68.9068L221.771 68.8717C221.912 69.2021 222.2 69.8559 222.348 70.1792C222.13 70.1652 221.694 70.1441 221.476 70.13C221.434 70.8541 221.35 72.2952 221.307 73.0123L220.738 72.8998C220.457 74.1581 220.112 75.4024 219.845 76.6678C219.705 76.6256 219.43 76.5483 219.29 76.5061C219.262 77.2653 219.213 78.7838 219.191 79.55L218.643 79.2196C218.383 80.478 218.046 81.7082 217.764 82.9666L217.167 82.833C217.146 83.4094 217.097 84.5623 217.075 85.1388L216.492 84.8154C216.443 85.3708 216.337 86.4815 216.281 87.0368C209.286 87.1845 202.285 87.072 195.283 87.0931C195.29 86.355 195.304 85.6168 195.311 84.8857L195.838 85.1318C196.063 84.2319 196.316 83.3391 196.597 82.4674C196.661 82.0105 196.78 81.1036 196.836 80.6537L197.736 80.7381C197.589 80.4007 197.293 79.7258 197.146 79.3883L198.067 79.4305C198.102 78.8541 198.172 77.7082 198.207 77.1318L198.847 77.3216C198.847 76.7381 198.84 75.5711 198.84 74.9877L199.515 75.2126C199.536 74.6502 199.571 73.5184 199.592 72.949L200.218 73.0685C200.225 72.4991 200.239 71.3743 200.246 70.8049L201.012 71.0087C200.984 70.4323 200.921 69.2794 200.893 68.7029L201.645 68.8576C201.659 68.3093 201.673 67.2126 201.687 66.6643L202.32 66.8892C202.327 66.2636 202.348 65.0193 202.355 64.3936L203.002 64.7381C203.051 64.246 203.149 63.2689 203.205 62.7768C203.48 61.9543 203.747 61.1177 203.993 60.2882L204.745 60.3233C204.604 59.9929 204.337 59.3321 204.204 58.9947L205.118 59.0228C205.139 58.4815 205.195 57.3919 205.223 56.8506L205.631 56.9209C205.989 55.2337 206.531 53.5958 206.84 51.9016C207.037 51.8875 207.416 51.8664 207.613 51.8523C207.466 51.536 207.163 50.9103 207.016 50.594L207.93 50.608C207.958 49.8769 208.014 48.4288 208.042 47.6977C208.211 47.7258 208.541 47.782 208.71 47.8102C208.963 46.5378 209.265 45.2864 209.511 44.0211L210.088 44.3796C210.116 43.6274 210.179 42.116 210.207 41.3638C210.425 41.3567 210.861 41.3427 211.079 41.3357L210.615 40.1124C210.847 40.0984 211.311 40.0703 211.543 40.0562C211.543 39.4868 211.55 38.3409 211.55 37.7645L212.028 38.0316C212.281 37.0826 212.569 36.1476 212.893 35.2267C212.836 35.0088 212.738 34.5729 212.689 34.355L213.511 34.5096C213.561 33.7574 213.652 32.2601 213.701 31.5079C213.828 31.543 214.081 31.6133 214.207 31.6555C214.495 30.3901 214.847 29.1529 215.135 27.8945L215.536 28.1406C215.782 26.6432 216.176 25.188 216.527 23.7188L217.125 23.8313C217.111 23.29 217.082 22.2214 217.068 21.6872L217.68 21.8207C218.039 19.5712 219.269 17.5606 219.43 15.2759L219.803 15.4868C220.14 14.0387 220.548 12.6046 220.843 11.1494L221.286 11.2267C221.42 10.4183 221.582 9.61688 221.771 8.8225C222.313 7.34623 222.84 5.86292 223.466 4.42179C223.423 4.18278 223.332 3.71177 223.29 3.47276L224.197 3.37435C224.126 3.02286 223.979 2.31283 223.901 1.96134L224.865 2.14412L224.801 1.33567C231.388 1.34973 237.975 1.30756 244.562 1.34974C244.583 9.56766 244.351 17.7926 244.457 26.0176L243.951 25.8489C243.972 27.1002 243.965 28.3515 243.965 29.6098C244.098 29.5255 244.358 29.3568 244.492 29.2724C244.59 29.8348 244.78 30.9525 244.879 31.5149C245.097 30.3269 245.272 29.1248 245.434 27.9297L245.94 28.0703C245.954 27.5219 245.968 26.4323 245.982 25.884L246.692 26.0668C246.685 25.4833 246.678 24.3093 246.671 23.7258L247.578 23.8102C247.522 23.5712 247.416 23.1002 247.367 22.8612C247.944 21.8348 248.063 20.6678 248.232 19.536L248.625 19.7188C249.061 16.1828 251.332 13.174 251.669 9.65202C251.831 9.70826 252.162 9.82074 252.33 9.86994C252.337 9.2935 252.344 8.12652 252.344 7.55007L252.822 7.71881C253.209 6.24956 253.603 4.78031 253.863 3.28997L254.355 3.54306C254.397 3.00176 254.481 1.91213 254.524 1.37083Z" fill="#FF7F26"/>
<path d="M30.0386 3.53605C30.0738 3.00178 30.13 1.93324 30.1652 1.39194C46.84 1.24432 63.5149 1.38491 80.1897 1.32164C80.1265 2.5589 80.0562 3.79615 79.9929 5.03341L79.3602 4.67488C79.3532 5.26539 79.3321 6.43938 79.318 7.02989L78.6643 6.74167C78.6643 7.34623 78.6572 8.56241 78.6572 9.16698L77.891 8.97014C77.9121 9.54659 77.9613 10.6995 77.9824 11.2759L77.2934 10.9455C77.2723 11.536 77.2372 12.7171 77.2161 13.3005L76.485 13.2021C76.5131 13.8067 76.5553 15.0229 76.5764 15.6274L75.8453 15.1846C75.8312 15.7961 75.8101 17.0123 75.7961 17.6169C75.5852 17.6028 75.1704 17.5817 74.9666 17.5677L75.2829 18.7628C70.7908 18.826 66.2987 18.6503 61.8137 18.9034C61.7855 19.8454 61.7504 20.7944 61.7293 21.7434L60.8224 21.7575C60.942 22.0879 61.188 22.7487 61.3075 23.0721L60.3796 23.1283C60.4007 23.6837 60.4428 24.8014 60.4639 25.3568C60.2671 25.2935 59.8734 25.1599 59.6766 25.0967C59.6625 25.7083 59.6344 26.9315 59.6203 27.5431L58.9666 27.2408C58.9525 27.7891 58.9174 28.8858 58.8963 29.4341L58.2495 29.3427C58.2425 29.9402 58.2355 31.1283 58.2284 31.7188L57.5254 31.3884C57.5254 31.9578 57.5184 33.1037 57.5114 33.6801L56.8717 33.5606C56.8646 34.123 56.8435 35.2478 56.8365 35.8032L56.1195 35.6344C56.1124 36.239 56.1054 37.4552 56.1054 38.0598L55.4516 37.6731C55.4376 38.2917 55.4094 39.522 55.3954 40.1336L54.7065 39.9016C54.7135 40.4921 54.7276 41.6872 54.7346 42.2847L53.7785 42.0527C53.9051 42.4042 54.1722 43.1002 54.3058 43.4517L53.3989 43.4587C53.3708 44.0211 53.3145 45.1318 53.2864 45.6942L52.5694 45.4974C52.5975 46.116 52.6608 47.3532 52.6959 47.9719C52.5061 47.8594 52.1405 47.6415 51.9578 47.529C51.9297 48.1336 51.8734 49.3357 51.8453 49.9402L51.2056 49.7785C51.2267 50.348 51.2688 51.4727 51.2899 52.0422L50.4674 51.8172C50.4815 52.4147 50.5026 53.6028 50.5167 54.2003L49.8559 53.9332C49.8418 54.4886 49.8066 55.5923 49.7926 56.1476L49.0966 55.9789C49.1036 56.6046 49.1107 57.8488 49.1107 58.4745L48.4358 58.109C48.4077 58.7206 48.3585 59.9508 48.3304 60.5694L47.2899 60.3585C47.543 60.71 48.0492 61.3989 48.3022 61.7434L47.079 61.7012C47.0509 62.2988 46.9947 63.5079 46.9736 64.1125L46.3268 63.7539C46.3128 64.3585 46.2776 65.5676 46.2636 66.1722L45.6379 65.891C45.6309 66.4956 45.6239 67.7117 45.6239 68.3163L45.0826 68.0562C44.7943 69.5325 44.4007 70.9877 44.0562 72.4569L43.4446 72.2109C43.4657 72.8154 43.5079 74.0316 43.529 74.6362C43.3462 74.5448 42.9877 74.362 42.8049 74.2706C42.7979 74.8471 42.7838 76.007 42.7768 76.5835L42.0738 76.5624C42.1019 77.1318 42.1441 78.2566 42.1652 78.826L41.4059 78.4534C41.3989 79.072 41.3778 80.3163 41.3708 80.942C41.1458 80.9068 40.6889 80.8506 40.4569 80.8154L40.956 82.116L40.0281 82.0246C40.014 82.6643 39.9929 83.9437 39.9789 84.5835C39.8031 84.4639 39.4446 84.239 39.2618 84.1195C39.2689 84.71 39.2759 85.891 39.2829 86.4815L38.5378 86.3761L38.6573 87.1142C30.5799 87.072 22.5026 87.1283 14.4253 87.079C14.5378 86.137 14.6432 85.188 14.7487 84.2531C14.9174 84.2601 15.2548 84.2671 15.4235 84.2741C15.3954 83.7258 15.3532 82.6362 15.3251 82.0879L16.1265 82.348C16.1336 81.7293 16.1406 80.4991 16.1476 79.8875L17.4622 80.0281C17.1037 79.6625 16.3866 78.9244 16.0211 78.5588C16.3655 78.6151 17.0474 78.7416 17.3919 78.7979C17.427 78.0316 17.4903 76.485 17.5184 75.7188L18.4464 75.8523C18.3128 75.5079 18.0527 74.819 17.9191 74.4745L18.7979 74.4042C18.8471 73.4341 18.9033 72.4569 18.9596 71.4938L19.7891 71.6063C19.7258 71.3814 19.5923 70.9244 19.529 70.6995C20.0914 69.5958 20.3796 68.4007 20.5202 67.1916L21.2864 67.3814C21.1318 67.0439 20.8295 66.355 20.6819 66.0176L21.6801 66.1652C21.7082 65.5466 21.7645 64.3093 21.7996 63.6907L22.6854 63.9156C22.5237 63.5641 22.2074 62.8682 22.0527 62.5167C22.2987 62.5167 22.7979 62.5167 23.0509 62.5237C23.058 61.7856 23.0861 60.3093 23.0931 59.5712C23.2689 59.6133 23.6274 59.6977 23.8031 59.7469C23.8172 59.1915 23.8524 58.0949 23.8664 57.5466L24.5413 57.5747C24.5202 57.0263 24.485 55.9227 24.4639 55.3743L25.2021 55.7188C25.2161 55.0721 25.2443 53.7926 25.2583 53.1459L25.7715 53.4763C26.13 51.9578 26.5378 50.4605 26.8119 48.935L27.6485 49.1388C27.5009 48.8084 27.2056 48.1406 27.065 47.8102H27.9789C28 47.2267 28.0281 46.0527 28.0422 45.4622L28.7733 45.877C28.7451 45.2443 28.6959 43.9859 28.6678 43.3533C28.8436 43.4025 29.2021 43.5079 29.3778 43.5571C29.3989 42.9947 29.4411 41.8559 29.4622 41.2865L30.0949 41.5677C30.1089 40.9279 30.13 39.6555 30.1371 39.0229L30.8822 39.3814C30.8541 38.7909 30.8049 37.6169 30.7768 37.0334C30.9666 37.1248 31.3321 37.3216 31.5219 37.413C31.5219 36.8014 31.5219 35.5712 31.5219 34.9596L32.253 35.1494C32.232 34.587 32.2038 33.4622 32.1898 32.8998L32.942 33.0967C32.956 32.5202 32.9701 31.3603 32.9842 30.7768L33.5676 30.9807C33.6028 30.4042 33.6661 29.2443 33.7012 28.6678L34.6924 28.7241C34.5378 28.3867 34.2214 27.7258 34.0668 27.3954L34.9595 27.4728C34.9947 26.8752 35.0509 25.6731 35.0861 25.0685L35.7047 25.406C35.7117 24.7592 35.7188 23.4657 35.7258 22.819L36.4218 23.4165C36.4358 22.7627 36.471 21.4411 36.485 20.7803L37.0544 21.0756C37.1037 20.5062 37.2021 19.3743 37.2513 18.8049C33.4552 18.7628 29.6661 18.7487 25.877 18.8049L25.891 18.3691C25.3778 18.2496 24.3585 18.0035 23.8453 17.877C24.239 17.7504 25.0263 17.4833 25.42 17.3497C25.3075 17.0334 25.0896 16.4007 24.9842 16.0914L25.8277 16.2039C25.8488 15.6134 25.898 14.4324 25.9191 13.8418L26.5448 14.0949C26.5799 13.0826 26.6221 12.0844 26.6573 11.0861L27.2618 11.3181C27.4095 9.01935 28.8998 7.06504 28.9209 4.73815L29.7082 4.82252C29.5747 4.47806 29.3005 3.79615 29.1669 3.45169L30.0386 3.53605Z" fill="#FF7F26"/>
<path d="M91.8875 1.35676C103.241 1.30755 114.594 1.34973 125.947 1.33567C125.863 3.28294 125.729 5.23022 125.687 7.17749C125.532 7.07907 125.223 6.86818 125.068 6.76273C125.061 8.04217 125.054 9.3216 125.04 10.6081L124.394 10.3409C124.373 11.6344 124.344 12.9209 124.344 14.2214L123.796 13.8278C123.768 16.3304 122.952 18.7346 122.819 21.2372L122.334 20.8576C122.292 22.3691 122.228 23.8875 122.179 25.406L121.568 25.0474C121.532 26.3269 121.49 27.5993 121.469 28.8857L121.026 28.6045C120.773 31.3181 119.831 33.9332 120.021 36.6959L119.494 36.2671C119.487 36.8717 119.473 38.0808 119.466 38.6854C119.297 38.6432 118.974 38.5659 118.812 38.5237C118.784 40.2601 118.713 42.0035 118.685 43.7539L118.088 43.2478C118.046 44.3093 118.003 45.3708 117.961 46.4393L117.406 46.1863C117.378 47.7118 117.322 49.2302 117.286 50.7557C117.132 50.6502 116.822 50.4253 116.668 50.3198C116.612 51.6133 116.569 52.9138 116.541 54.2144L115.972 53.891C115.951 55.1634 115.902 56.4358 115.887 57.7223C115.726 57.652 115.402 57.5044 115.241 57.4341C115.22 58.7135 115.199 59.9929 115.177 61.2794L114.587 60.8998C114.538 62.4042 114.467 63.9086 114.425 65.42L113.807 65.2161C113.793 66.2284 113.778 67.2478 113.764 68.2671L113.174 67.9367C113.153 69.4551 113.097 70.9736 113.061 72.492L112.401 72.2108C112.365 73.4411 112.323 74.6783 112.302 75.9156L111.754 75.7398C111.74 76.963 111.705 78.1933 111.691 79.4235L111.051 79.1353C111.065 81.6168 110.355 84.021 110.179 86.4885L109.497 86.3268L109.666 87.1142C101.392 87.065 93.1247 87.1353 84.8506 87.079C84.8717 86.5307 84.9209 85.4411 84.949 84.8927L85.6238 85.1669C85.652 83.8945 85.7012 82.6151 85.7363 81.3497L86.3409 81.6239C86.3479 81.0474 86.362 79.9015 86.369 79.3321L87.0579 79.4797C87.0579 78.4534 87.0509 77.4341 87.0579 76.4147L87.8101 76.6959C87.8312 75.6977 87.8453 74.6994 87.8664 73.7152L88.5131 73.8066C88.485 73.434 88.4217 72.6959 88.3936 72.3304C86.376 72.3022 84.3514 72.3304 82.3409 72.4358C82.2636 73.3848 82.1933 74.3268 82.123 75.2829L81.1669 75.1282C81.2724 75.3883 81.4692 75.9086 81.5746 76.1687C81.0263 77.1177 80.492 78.0808 79.9367 79.0368L80.2741 79.9437C80 79.9859 79.4446 80.0843 79.1704 80.1265C79.2478 80.4428 79.4094 81.0755 79.4868 81.3919L78.5307 81.5184C78.6151 81.8629 78.7908 82.5588 78.8752 82.9033L77.9894 82.826C77.9754 83.3954 77.9543 84.5413 77.9472 85.1177L77.2794 84.8927C77.2232 85.42 77.1107 86.4745 77.0544 87.0017C68.4499 87.2126 59.8383 87.072 51.2267 87.079C51.2267 86.7205 51.2337 86.0035 51.2407 85.6449L52.1054 85.6098L51.8172 84.3163C52.0703 84.3022 52.5694 84.2811 52.8225 84.2741C52.7451 83.9086 52.5764 83.1775 52.4921 82.8119L53.5255 82.833L53.2091 81.5536C53.4762 81.5184 54.0105 81.4411 54.2776 81.4059L53.8629 80.1687C54.1371 80.1195 54.6854 80.0351 54.9595 79.9859C54.8611 79.6625 54.6573 79.0087 54.5518 78.6854L55.536 78.5799C55.4657 78.2495 55.3321 77.5817 55.2618 77.2513L56.2671 77.2021C56.1827 76.8646 56.014 76.1757 55.9297 75.8312L56.942 75.789C56.8787 75.4586 56.7592 74.7838 56.6959 74.4463L57.659 74.3128C57.5747 73.9824 57.4059 73.3145 57.3146 72.9841L58.0457 73.1036C58.369 71.8875 58.7838 70.7065 59.1494 69.5114L59.9015 69.4692L59.4727 68.1898C59.7609 68.1546 60.3304 68.0843 60.6186 68.0492L60.1687 66.8189C60.4288 66.7838 60.942 66.7135 61.2021 66.6713C61.1458 66.3128 61.0263 65.5957 60.9631 65.2302L61.9965 65.2794C61.898 64.942 61.6871 64.2671 61.5887 63.9297L62.6291 63.8804C62.5448 63.536 62.3831 62.8471 62.2987 62.5026L63.2829 62.3972C63.1986 62.0597 63.0298 61.3989 62.9455 61.0615L63.9297 61.0896C63.8875 60.724 63.7961 60 63.7539 59.6344L64.5905 59.5922C64.5623 59.2407 64.4921 58.5448 64.4569 58.2003H65.4903C65.3638 57.8699 65.1107 57.2091 64.9771 56.8787L65.9191 56.9279C65.9613 56.3304 66.0457 55.1423 66.0949 54.5448L66.9244 54.7979C66.8189 54.4464 66.6151 53.7504 66.5096 53.3989L67.5782 53.3075C67.4938 52.9701 67.3251 52.3093 67.2337 51.9718L68.239 51.8664C68.1687 51.543 68.0351 50.8963 67.9648 50.5729L68.9701 50.4956C68.8857 50.1511 68.724 49.4552 68.6397 49.1107L69.7012 49.0896C69.6168 48.7592 69.4622 48.1054 69.3848 47.775L70.3479 47.6836C70.2565 47.3392 70.0738 46.6502 69.9824 46.3058H70.6502C70.9314 45.3989 71.2829 44.5272 71.6625 43.6625C72.6467 42.0527 73.6239 40.3796 73.9051 38.4885L74.608 38.5518C74.5166 38.2214 74.3339 37.5606 74.2425 37.2302L75.2899 37.1458C75.2056 36.8225 75.0509 36.1687 74.9736 35.8383L75.9789 35.7328C75.8945 35.4024 75.7328 34.7416 75.6555 34.4042L76.6959 34.3409C76.6186 34.0176 76.4639 33.3708 76.3866 33.0474L77.3848 32.8436C77.2935 32.5272 77.1107 31.8875 77.0193 31.5641L77.884 31.6696C77.9121 31.0931 77.9683 29.9543 77.9964 29.3849L78.8892 29.4552C78.7978 29.1248 78.6221 28.4569 78.5307 28.1195L79.5079 28.014C79.4446 27.6836 79.3251 27.0228 79.2618 26.6924L80.246 26.6292C80.1757 26.2917 80.0281 25.6169 79.9578 25.2724L80.956 25.2161C80.8857 24.8928 80.7521 24.246 80.6818 23.9227L81.652 23.768C81.5536 23.4376 81.3567 22.7768 81.2653 22.4534L82.3339 22.3831C82.2495 22.0597 82.0808 21.413 82.0035 21.0896L82.9244 20.8998C82.8822 20.5835 82.7908 19.9437 82.7486 19.6204L83.768 19.5571C83.6625 19.2197 83.4446 18.5518 83.3391 18.2214L84.3936 18.2285C84.3233 17.8699 84.1898 17.1529 84.1265 16.8014L84.8998 16.8295C84.9279 16.2882 84.9912 15.1986 85.0193 14.6573L85.9191 14.6924C85.8207 14.362 85.6379 13.6942 85.5395 13.3638L86.5518 13.2794C86.4885 12.9561 86.369 12.3093 86.3057 11.9859L87.2407 11.8875C87.1774 11.543 87.065 10.8541 87.0087 10.5097L87.9859 10.4815C87.9226 10.1511 87.7961 9.49736 87.7328 9.16696L88.6186 9.06151C88.5412 8.71002 88.3936 8.00702 88.3233 7.6485C88.6045 7.62741 89.1599 7.59227 89.4411 7.57118L88.9209 6.34096C89.2161 6.29878 89.7996 6.20035 90.0948 6.15817L89.652 4.89982C89.9402 4.86467 90.5096 4.79438 90.7908 4.75923L90.3479 3.5079C90.6572 3.45869 91.2688 3.36731 91.5711 3.3181L91.0158 2.03866L92.0773 2.17926L91.8875 1.35676ZM95.8312 38.4534C95.5992 39.3111 95.3532 40.1687 95.0931 41.0263C94.4463 42.5659 93.6168 44.0351 93.195 45.6731L92.4077 45.6168C92.5272 45.9543 92.7592 46.6291 92.8787 46.9666L91.8734 47.1283C91.9437 47.4376 92.0913 48.0632 92.1616 48.3796L91.2688 48.3585C91.2759 48.9068 91.2829 49.9965 91.2899 50.5378L90.3198 50.5237C90.4253 50.8471 90.6432 51.4938 90.7557 51.8172L89.7715 51.9929C89.8418 52.3233 89.9824 52.9701 90.0527 53.2935L88.949 53.4411C89.0826 53.7715 89.3427 54.4182 89.4762 54.7486L88.5975 54.6432C88.5342 55.3462 88.4217 56.7381 88.3655 57.4411C89.6028 57.434 90.84 57.4411 92.0773 57.4622L92.0843 56.8084C92.4077 56.8576 93.0474 56.9631 93.3708 57.0123C93.4059 56.0211 93.4481 55.0369 93.4832 54.0527L93.9472 54.1371C94.2987 50.2003 96.2882 46.5799 96.3233 42.601L96.9138 42.9033C96.9349 41.7012 96.9701 40.5061 96.9841 39.3111L98.8752 38.84C97.8629 38.6924 96.8435 38.5659 95.8312 38.4534Z" fill="#FF7F26"/>
<path d="M141.982 1.39891C153.237 1.27237 164.492 1.30051 175.747 1.42002L175.564 1.9121C176.787 1.94725 178.01 1.99647 179.241 2.05271L179.072 2.6643C180.077 2.67133 181.09 2.6854 182.102 2.71352C182.081 2.93847 182.039 3.39541 182.017 3.62739L183.093 3.28293C183.416 3.59928 184.077 4.23196 184.408 4.5483C184.991 5.01227 185.575 5.47625 186.172 5.93319C186.158 6.1722 186.137 6.65726 186.123 6.89628L187.058 7.02281C186.995 7.33916 186.875 7.97186 186.812 8.2882L187.81 8.40068C187.705 8.73812 187.501 9.41298 187.402 9.75744L188.267 9.65901C188.274 12.3233 188.274 14.9806 188.267 17.645L187.634 17.3778C187.599 18.3761 187.571 19.3813 187.543 20.3866L186.945 20.2671C186.917 21.2583 186.889 22.2495 186.868 23.2478L186.348 23.0439C186.306 24.7522 185.666 26.3339 184.773 27.775C184.836 28.0211 184.949 28.5202 185.005 28.7732L184.323 28.6959C183.937 30.2284 183.213 31.6344 182.538 33.0544L181.989 33.1177C182.003 33.4341 182.039 34.0527 182.053 34.369L181.434 34.2706C181.188 34.5237 180.703 35.0228 180.457 35.2689L180.759 35.8383L179.831 35.7117L179.951 36.6045L179.072 36.3866L179.276 37.2583L178.404 36.956C178.383 37.2091 178.341 37.7012 178.32 37.9472L177.075 37.7785L176.928 38.7275C176.626 38.6362 176.014 38.4604 175.712 38.369L175.74 39.2337C175.163 39.2477 174.01 39.2688 173.441 39.2829L173.68 39.9578C173.075 40.0281 171.852 40.1616 171.248 40.2319C171.873 41.3427 172.9 42.0948 173.898 42.8541C174.144 42.8049 174.643 42.6994 174.889 42.6432L174.854 43.6133L175.395 43.4727C175.655 43.7258 176.176 44.2319 176.436 44.485L176.316 45.0615L177.307 44.963C177.174 45.2934 176.9 45.9402 176.766 46.2636L177.764 46.2355C177.954 49.1247 177.821 52.021 177.673 54.9173L177.068 54.5237C177.068 55.2829 177.068 56.8013 177.075 57.5606C176.921 57.5395 176.626 57.4903 176.478 57.4692C176.169 59.7398 174.91 61.7644 174.72 64.0773L173.947 63.8945C174.095 64.2319 174.39 64.9068 174.538 65.2442L173.786 65.2231C173.568 66.7064 173.054 68.1194 172.576 69.5395C172.415 69.5535 172.091 69.5816 171.93 69.5887C172.056 69.9191 172.316 70.5729 172.443 70.9033L171.508 70.8611C171.459 71.4868 171.367 72.731 171.318 73.3497L170.474 73.0122L170.889 74.2565C170.643 74.3268 170.144 74.4604 169.891 74.5307C169.961 74.84 170.102 75.4657 170.172 75.775L169.111 75.9156L169.497 77.2091C169.251 77.181 168.752 77.1247 168.499 77.1036L168.731 78.0034L168.119 77.8558C167.747 78.608 167.374 79.3602 167.009 80.1194L166.411 80.0773C166.425 80.4006 166.446 81.0544 166.46 81.3778C166.123 81.3778 165.455 81.3707 165.118 81.3637L165.209 81.9613C164.942 82.2143 164.408 82.7205 164.141 82.9806L163.571 82.847L163.655 83.8031C163.346 83.7047 162.728 83.5078 162.425 83.4094L162.362 84.3163L161.462 84.0702L161.757 84.8927C161.174 84.9138 160 84.956 159.416 84.9771L159.62 85.5395C158.728 85.7363 157.849 85.9542 156.97 86.1933C155.648 86.3128 154.327 86.4182 153.012 86.5026L153.336 87.0298C139.824 87.1212 126.32 87.1634 112.815 87.0298C113.069 86.4042 113.582 85.1528 113.842 84.5272C113.771 84.2952 113.645 83.8171 113.582 83.5852L114.446 83.6695C114.46 82.9033 114.489 81.3778 114.503 80.6185C114.636 80.7029 114.903 80.8716 115.037 80.963C115.234 79.9788 115.515 79.0228 115.887 78.1019C115.824 77.8839 115.698 77.4551 115.634 77.2372L116.583 77.3215C116.562 76.7451 116.534 75.5992 116.513 75.0228L117.132 75.1774C117.469 73.7152 117.891 72.2811 118.144 70.8119C118.299 70.8892 118.601 71.0439 118.756 71.1282C118.756 70.5377 118.756 69.3708 118.756 68.7873L119.592 68.7662C119.487 68.4217 119.269 67.7328 119.156 67.3883H120.056C120.084 66.4042 120.112 65.42 120.148 64.4428L120.682 64.7311C121.061 63.1775 121.483 61.6309 121.771 60.0562L122.228 60.5834C122.242 59.9929 122.264 58.7978 122.271 58.2003L123.184 58.2214C123.051 57.898 122.784 57.2442 122.65 56.9209L123.564 56.8857C123.585 56.3022 123.634 55.1353 123.655 54.5518L124.358 54.9455C124.366 54.3479 124.387 53.1458 124.394 52.5483L125.033 52.6748C125.026 52.1265 125.019 51.0228 125.019 50.4745C125.216 50.5026 125.61 50.5658 125.807 50.594C125.793 50.0035 125.75 48.8224 125.729 48.2319L126.214 48.4991C126.46 47.6344 126.735 46.7767 127.03 45.9332C127.072 45.4692 127.156 44.5483 127.199 44.0843L127.648 44.3725C127.824 43.4235 128.091 42.4955 128.45 41.6028C128.422 41.3708 128.38 40.9138 128.358 40.6889L129.167 40.6467C129.209 39.6414 129.258 38.6432 129.308 37.652L130.242 37.8348C130.102 37.5114 129.814 36.8576 129.673 36.5272L130.608 36.5764C130.622 35.9789 130.657 34.7697 130.671 34.1722L131.374 34.6221C131.374 33.9824 131.374 32.6959 131.374 32.0562L132.035 32.3233C132.049 31.7469 132.077 30.601 132.098 30.0246L132.731 30.3128C132.745 29.6801 132.759 28.4147 132.766 27.782L133.3 28.1054C133.596 26.6362 133.996 25.195 134.327 23.7328L134.924 23.8453C134.903 23.2759 134.847 22.137 134.819 21.5747L135.55 21.8488C135.571 21.2724 135.606 20.1124 135.62 19.536L136.197 19.7188C136.239 19.1283 136.316 17.9472 136.351 17.3497L136.935 17.6028C137.216 16.3444 137.568 15.1072 137.835 13.8488L138.341 14.1581C138.376 13.3778 138.446 11.8172 138.481 11.0369C138.728 11.058 139.206 11.1001 139.452 11.1212C139.297 10.7838 138.981 10.1089 138.826 9.77149L139.705 9.89805C139.726 9.30051 139.775 8.10541 139.796 7.50787L140.351 7.81017C140.52 6.65025 140.534 5.41298 141.244 4.41473C141.195 4.16869 141.111 3.6766 141.068 3.43056L141.793 3.58521C141.842 3.03688 141.933 1.94724 141.982 1.39891ZM161.483 16.8084C161.532 17.1318 161.624 17.7926 161.666 18.123L160.921 18.1441C160.914 18.6994 160.893 19.8102 160.886 20.3655L160.112 20.2109C160.126 20.7803 160.148 21.9261 160.162 22.4956L159.515 22.3198C159.501 22.8892 159.48 24.014 159.466 24.5834L158.924 24.4007C158.566 25.8488 158.151 27.2899 157.863 28.7662L157.518 28.6537C157.054 30.369 156.619 32.0843 156.358 33.8488C156.984 33.7855 158.235 33.659 158.861 33.6028L158.875 32.8717C159.163 32.8998 159.74 32.956 160.028 32.9912C160.084 32.4428 160.204 31.3602 160.26 30.8119L161.132 30.833C161.047 30.5237 160.893 29.891 160.808 29.5817L161.757 29.3216C161.659 28.9982 161.462 28.3444 161.364 28.0211L162.109 28.1476C162.397 26.4885 163.023 24.9279 163.684 23.3954C163.641 23.1493 163.543 22.6432 163.494 22.3972L164.351 22.362C164.387 20.7029 164.415 19.0509 164.443 17.3989L163.522 17.652L163.775 16.7311C163.206 16.7451 162.06 16.7873 161.483 16.8084ZM150.425 49.0333C150.397 49.6098 150.334 50.7557 150.299 51.3321L149.357 51.2899C149.497 51.6063 149.793 52.246 149.933 52.5623L148.998 52.5834C148.97 53.1529 148.921 54.2987 148.893 54.8681L148.267 54.5658C148.274 55.1915 148.288 56.4358 148.288 57.0615L147.536 56.717C147.529 57.3075 147.515 58.4956 147.508 59.0861L146.882 58.9173C146.868 59.4797 146.847 60.6045 146.833 61.1669L146.172 60.9349C146.165 61.5254 146.151 62.7064 146.144 63.2899L145.666 63.1212C145.427 63.9999 145.167 64.8716 144.879 65.7363C144.829 66.2003 144.738 67.1212 144.689 67.5781L144.028 67.2548C144.028 67.8383 144.028 69.0122 144.028 69.5957L143.381 69.434C143.346 69.8488 143.276 70.6783 143.241 71.0931C144.218 71.0368 145.202 70.9876 146.186 70.9455L146.025 70.0667L146.91 70.376L146.826 69.4481L147.761 69.4832C147.648 69.1599 147.431 68.5131 147.325 68.1897L148.401 68.1054C148.344 67.782 148.232 67.1282 148.183 66.8049L149.167 66.5729C149.033 66.2425 148.766 65.5887 148.626 65.2653L149.589 65.4762C149.638 64.478 149.687 63.4938 149.743 62.5026L150.608 62.4182C150.474 62.0808 150.207 61.4059 150.074 61.0685L150.826 61.2723C150.96 58.9314 152.26 56.9138 152.612 54.6291L152.977 54.8752C153.195 53.0966 153.638 51.3602 154.01 49.6238L153.019 50.0527L153.251 49.0685C152.302 49.0474 151.367 49.0404 150.425 49.0333Z" fill="#FF7F26"/>
<path d="M291.578 1.34271C303.058 1.35677 314.538 1.2724 326.017 1.37785C326.045 1.91915 326.109 2.99474 326.137 3.52901L325.455 3.40949C325.413 4.88577 325.349 6.36204 325.335 7.84534L324.85 7.50088C324.639 9.9754 323.831 12.3726 323.908 14.8822L323.367 14.4745C323.325 15.7258 323.276 16.9771 323.241 18.2355L322.629 18.0668C322.615 19.3181 322.573 20.5694 322.566 21.8278C322.397 21.7786 322.074 21.6872 321.905 21.6379C321.898 22.8963 321.891 24.1546 321.87 25.413L321.251 25.0756C321.195 26.5448 321.11 28.0141 321.061 29.4903L320.548 29.3708C320.513 30.355 320.478 31.3532 320.45 32.3515L319.831 32.0843C319.796 33.8207 319.726 35.5641 319.697 37.3146L319.086 37.0826C319.065 37.659 319.009 38.819 318.98 39.4025L318.467 39.2126C318.425 40.942 318.348 42.6784 318.306 44.4147L317.659 43.9789C317.617 44.9982 317.581 46.0175 317.553 47.0509L317.054 47.0088C317.026 48.1968 316.984 49.3778 316.97 50.5729C316.822 50.5518 316.527 50.5096 316.379 50.4956C316.288 51.761 316.183 53.0404 316.063 54.3128C315.501 55.5782 315.494 56.9701 315.409 58.3339L314.882 58.2355C314.861 59.2478 314.854 60.2671 314.847 61.2864L314.242 60.9279C314.2 62.4253 314.13 63.9156 314.088 65.42L313.504 65.2864C313.448 66.4815 313.385 67.6766 313.349 68.8787L312.801 68.717C312.801 69.9472 312.78 71.1775 312.78 72.4218L312.14 72.3444C312.049 73.666 311.908 74.9806 311.543 76.2601C311.444 77.3145 311.381 78.3831 311.325 79.4586L310.685 79.297C310.622 80.9982 310.538 82.6994 310.509 84.4077C310.383 84.3304 310.13 84.1687 310.003 84.0843C309.933 85.0544 309.863 86.0316 309.792 87.0158C301.371 87.2126 292.935 87.0509 284.506 87.0931C284.534 86.3409 284.569 85.5957 284.611 84.8576L285.293 85.1528C285.3 84.1405 285.314 83.1353 285.328 82.137L285.926 82.1792C285.968 81.2302 286.017 80.2882 286.074 79.3462L286.727 79.4727C286.727 78.7135 286.72 77.2021 286.713 76.4499C286.896 76.5061 287.255 76.6186 287.43 76.6748C287.465 76.2038 287.536 75.2478 287.571 74.7697C287.754 74.1652 288.112 72.963 288.295 72.3585C286.341 72.3022 284.386 72.3233 282.439 72.3304L282.636 73.0896L281.905 72.9771C281.884 73.5465 281.842 74.6854 281.828 75.2478L281.357 75.072C281.11 75.9578 280.787 76.8225 280.4 77.666C280.415 77.884 280.443 78.3339 280.457 78.5518L279.529 78.7275C279.62 79.0368 279.789 79.6625 279.88 79.9718L279.142 80.0421C278.84 81.4411 278.32 82.7767 277.511 83.9648C277.553 84.1124 277.624 84.4007 277.666 84.5413C277.23 85.3427 276.829 86.1581 276.457 86.9876C267.894 87.2196 259.325 87.0861 250.755 87.0509C251.107 86.13 251.458 85.2091 251.81 84.2952L252.485 84.2741C252.415 83.9437 252.274 83.2899 252.204 82.9666L253.111 82.8119C253.075 82.5096 252.998 81.9051 252.956 81.6028L253.835 81.42C253.778 81.0966 253.673 80.4499 253.624 80.1265L254.615 80.007C254.531 79.6836 254.355 79.0509 254.263 78.7275L255.17 78.5307C255.107 78.2144 254.98 77.5887 254.917 77.2794L255.908 77.1739C255.838 76.8506 255.705 76.1968 255.634 75.8734L256.569 75.7609C256.527 75.4446 256.436 74.8119 256.386 74.4956L257.307 74.3058C257.23 73.9894 257.075 73.3567 257.005 73.0404L257.715 73.0544C257.954 71.6274 258.58 70.3198 259.395 69.1458C259.339 68.9068 259.234 68.4288 259.177 68.1898L260.154 68.1054C260.112 67.782 260.035 67.1423 259.993 66.819L260.864 66.6502C260.808 66.3409 260.696 65.7153 260.64 65.4059L261.617 65.2442L261.307 64C261.56 63.9508 262.06 63.8594 262.306 63.8102C262.214 63.4868 262.031 62.8471 261.94 62.5307L262.889 62.4534C262.826 62.116 262.692 61.4481 262.622 61.1177L263.578 60.9982C263.536 60.6748 263.451 60.0351 263.409 59.7188L264.281 59.5711C264.225 59.2478 264.105 58.6081 264.049 58.2917L265.082 58.2425C264.998 57.9121 264.836 57.2653 264.759 56.9349L265.708 56.724C265.652 56.4147 265.532 55.8031 265.476 55.5009L266.228 55.5782C266.263 55.0017 266.341 53.8418 266.376 53.2654L267.29 53.3356C267.198 53.0123 267.009 52.3726 266.917 52.0562L267.571 51.9156C267.803 51.4727 268.26 50.594 268.492 50.1581C268.457 49.9191 268.379 49.4411 268.344 49.2021L269.005 49.1177C269.216 48.6678 269.638 47.782 269.849 47.3392C269.792 47.0861 269.694 46.587 269.645 46.3339L270.629 46.2706C270.608 46.0105 270.559 45.5044 270.531 45.2443C270.763 44.7944 271.234 43.9016 271.466 43.4516L272.098 43.4235C272.014 43.1072 271.845 42.4815 271.761 42.1652L272.724 41.9683C272.696 41.7364 272.632 41.2654 272.597 41.0334C273.118 40.0984 273.624 39.1564 274.158 38.2285C274.102 37.9894 273.996 37.5044 273.94 37.2654L274.58 37.1529C274.812 36.71 275.283 35.8242 275.515 35.3743L275.332 34.4675C275.592 34.4253 276.105 34.355 276.358 34.3128C276.288 33.9894 276.154 33.3427 276.084 33.0264L277.019 32.8365C276.949 32.5342 276.801 31.9156 276.731 31.6133L277.378 31.6204C277.596 30.5659 278.003 29.5676 278.39 28.5764L279.114 28.703C279.023 28.3655 278.84 27.7047 278.755 27.3743L279.754 27.2618C279.697 26.9244 279.571 26.2566 279.508 25.9191L280.429 25.8489C280.415 25.6309 280.393 25.2091 280.379 24.9912C280.738 24.1125 281.061 23.2197 281.342 22.3128L282.088 22.362L281.61 21.1529C281.863 21.0966 282.376 20.9771 282.636 20.9209C282.573 20.5975 282.46 19.9508 282.404 19.6274L283.381 19.5641C283.311 19.2197 283.17 18.5378 283.1 18.2004L284.042 18.0879C283.986 17.7856 283.873 17.174 283.817 16.8717L284.386 16.8084C285.153 13.4974 287.634 10.9033 288.337 7.5782L289.061 7.63445C288.963 7.31108 288.752 6.67839 288.647 6.35501L289.603 6.17223C289.56 5.86994 289.483 5.25131 289.441 4.942L290.369 4.78734C290.299 4.46397 290.165 3.81722 290.102 3.49385L291.128 3.34623C291.037 3.02988 290.847 2.40422 290.748 2.08787L291.697 2.13709L291.578 1.34271ZM295.557 38.7487C295.248 39.529 294.931 40.3093 294.587 41.0826C294.538 41.5255 294.425 42.4112 294.369 42.8541L293.518 42.8049C293.567 43.0369 293.673 43.5079 293.722 43.7469C293.49 44.1898 293.019 45.0755 292.78 45.5184L292.161 45.666C292.225 45.9121 292.351 46.3972 292.415 46.6432C292.161 47.072 291.662 47.9297 291.409 48.3585L291.002 48.4007C290.98 48.956 290.938 50.0808 290.917 50.6362L289.961 50.5378C290.081 50.8541 290.313 51.4938 290.425 51.8102L289.469 52.0492C289.532 52.3515 289.652 52.956 289.715 53.2583L288.878 53.3146C288.864 53.8699 288.829 54.9877 288.815 55.543L288.056 55.3743C288.063 56.0562 288.07 56.7451 288.077 57.427C289.293 57.427 290.509 57.4411 291.726 57.4692L291.754 56.7803C292.035 56.8576 292.597 57.0052 292.878 57.0826C293.082 55.9297 293.321 54.7838 293.659 53.666C293.68 53.2091 293.729 52.2952 293.75 51.8383L294.313 52C294.446 50.8892 294.594 49.7785 294.903 48.71C295.03 47.9016 295.156 47.1001 295.269 46.3058L295.704 46.3901C295.817 44.4147 296.429 42.5237 296.752 40.5835L297.16 40.7311C297.195 40.0351 297.258 38.6432 297.286 37.9473C296.857 38.1511 295.993 38.5448 295.557 38.7487Z" fill="#FF7F26"/>
<path d="M338.671 1.33568C355.311 1.34271 371.951 1.3146 388.597 1.34975C388.597 1.84887 388.611 2.86117 388.618 3.36732L387.965 3.39545C387.958 3.95784 387.958 5.07558 387.958 5.63094L387.255 5.41302C387.241 6.00353 387.205 7.18454 387.184 7.78208L386.72 7.5993C386.334 9.04745 385.933 10.4956 385.68 11.9789L385.364 11.8453C385.111 12.6749 384.843 13.5044 384.562 14.3269C384.52 14.7909 384.429 15.7188 384.386 16.1757L383.74 15.9438C383.726 16.5202 383.698 17.659 383.683 18.2285L382.882 18.0949L383.17 18.7909C378.854 18.7487 374.538 18.7768 370.228 18.7838L370.538 19.6696L369.954 19.4728C369.61 21.2021 369.033 22.8682 368.696 24.5975L368.091 24.5553C368.119 24.7592 368.176 25.1669 368.197 25.3708C367.782 26.2285 367.494 27.1353 367.332 28.0844L366.966 27.9227C366.65 29.3849 366.263 30.819 365.968 32.2882L365.427 32.1125C365.42 32.6959 365.392 33.8699 365.385 34.4605L364.893 34.3269C364.499 35.8032 364.084 37.2654 363.831 38.7768L363.339 38.4323C363.325 38.9947 363.304 40.1335 363.297 40.703L362.805 40.6327C362.481 41.8559 362.109 43.065 361.814 44.3023L361.455 44.232C361.202 45.0474 360.935 45.8559 360.661 46.6643C360.611 47.1423 360.506 48.0984 360.457 48.5764L359.824 48.2812C359.803 48.8576 359.768 50.0176 359.754 50.594L359.058 50.5799C359.128 50.9174 359.269 51.5782 359.339 51.9086L358.517 51.9859C358.474 52.9139 358.432 53.8418 358.397 54.7838L357.891 54.6854C357.525 56.1125 357.118 57.5325 356.829 58.9736L356.316 58.84C356.309 59.4446 356.295 60.6467 356.288 61.2513L355.437 61.1599C355.487 61.3567 355.578 61.7574 355.627 61.9543C355.213 62.833 354.91 63.7539 354.713 64.71L354.278 64.478C354.221 64.9349 354.123 65.8559 354.067 66.3198C353.778 67.1564 353.518 68.007 353.293 68.8646L352.808 68.724C352.808 69.2864 352.815 70.4182 352.822 70.9806L352.147 70.9244C352.133 71.4516 352.091 72.4991 352.077 73.0263L351.459 72.8928C351.445 73.4762 351.416 74.6432 351.402 75.2267L350.692 75.0298C350.692 75.5852 350.699 76.7029 350.699 77.2583L350.271 77.2935C350.003 78.1019 349.722 78.8963 349.427 79.6977C349.371 80.1476 349.258 81.0615 349.202 81.5184L348.358 81.4692C348.394 81.6871 348.471 82.1159 348.506 82.3339C348.218 83.2478 347.951 84.1757 347.719 85.1107L347.22 84.8717C347.191 85.42 347.142 86.5237 347.114 87.072C338.854 87.1353 330.594 87.1001 322.341 87.0861C322.411 86.362 322.488 85.652 322.566 84.9349L323.241 85.1739C323.255 84.5623 323.276 83.3321 323.29 82.7135L323.909 82.9666C323.979 82.5237 324.105 81.6379 324.169 81.195C324.429 80.2741 324.675 79.3603 324.907 78.4393L325.483 78.7416C325.455 78.1722 325.399 77.0404 325.371 76.478L325.835 76.5553C326.102 75.6977 326.397 74.8471 326.72 74.0105C326.742 73.5676 326.784 72.6959 326.805 72.253L327.452 72.4077C327.487 71.9508 327.543 71.0298 327.578 70.5659C328.021 69.5817 328.471 68.6045 328.935 67.6344C328.907 67.5149 328.843 67.2759 328.815 67.1634C329.293 66.355 329.652 65.4903 329.891 64.5834L330.221 64.6467C330.249 64.0562 330.292 62.8822 330.313 62.2987L330.833 62.7627C331.065 61.2232 331.487 59.7328 331.894 58.2355L332.394 58.4253C332.408 57.7996 332.436 56.5483 332.45 55.9227L333.033 56.239C333.09 55.7961 333.202 54.9033 333.258 54.4604C333.525 53.5958 333.785 52.7311 334.032 51.8594L334.369 52.0211C334.51 51.1845 334.671 50.362 334.861 49.5466C335.452 48.4991 335.873 47.3743 336.091 46.2003L336.569 46.3901C336.611 45.9402 336.703 45.0404 336.745 44.5905C337.019 43.7118 337.279 42.833 337.525 41.9473L338.024 42.2847C338.017 41.6871 338.017 40.4921 338.017 39.8945L338.692 39.9789C338.706 39.4376 338.749 38.362 338.763 37.8207L339.388 37.8629C339.395 37.3005 339.409 36.1828 339.416 35.6274L339.958 35.8524C340.119 34.4534 340.541 33.1107 341.097 31.8243C341.329 31.0018 341.539 30.1793 341.736 29.3497L342.158 29.4973C342.446 28.2601 342.791 27.0369 343.072 25.8067L343.508 25.9965C343.684 24.5202 344.07 23.0861 344.485 21.6661L344.935 21.7645C345.019 20.7592 345.125 19.761 345.23 18.7698C341.132 18.7698 337.04 18.7768 332.949 18.7557C333.251 16.3866 334.362 14.2425 334.756 11.9016L335.114 11.9297C335.466 10.4886 335.852 9.04746 336.126 7.59228L336.464 7.76099C336.724 6.84008 337.005 5.91916 337.307 5.01231C337.258 4.80141 337.167 4.37961 337.118 4.16872C337.357 4.16169 337.842 4.1406 338.088 4.13357C338.053 3.59227 337.989 2.5167 337.954 1.9754L338.77 2.05975L338.671 1.33568Z" fill="#FF7F26"/>
<path d="M392.928 1.36379C401.11 1.28646 409.293 1.37784 417.476 1.31458C417.483 1.86291 417.497 2.95956 417.504 3.50789L416.815 3.33215C416.808 3.90859 416.794 5.06854 416.787 5.65202L415.936 5.62389C415.979 5.83479 416.063 6.2636 416.105 6.4745C415.262 8.73109 414.27 10.9525 413.813 13.3286L413.497 13.2724C413.04 16.4499 411.269 19.2689 410.945 22.4745L410.545 22.348C410.235 23.5782 409.884 24.8084 409.596 26.0527L409.188 25.8207C409.005 26.6502 408.808 27.4798 408.604 28.3023C407.676 30.9877 406.488 33.6168 406.031 36.4428L405.539 36.3866C405.511 36.8365 405.455 37.7364 405.434 38.1863C404.97 39.1072 404.562 40.0422 404.14 40.9842C404.126 41.4552 404.098 42.3972 404.084 42.8682L403.557 42.7205C403.255 43.9297 402.868 45.1107 402.523 46.3058L401.996 46.2144C401.982 46.7908 401.954 47.9508 401.947 48.5342L401.469 48.4007C401.082 49.8277 400.675 51.2548 400.407 52.717L399.859 52.5272C399.852 53.0966 399.831 54.2355 399.824 54.7979L399.472 54.7346C399.184 55.5571 398.875 56.3725 398.545 57.188C398.523 57.6801 398.474 58.6573 398.446 59.1493L397.961 58.8822C397.61 60.3163 397.209 61.7363 396.9 63.1915L396.154 63.1845C396.211 63.4305 396.337 63.9086 396.4 64.1546C395.951 65.0755 395.522 66.0175 395.079 66.9455C395.03 67.304 394.938 68.021 394.889 68.3796C394.2 69.8488 393.659 71.4024 393.399 73.0123L392.893 72.9279C392.878 73.5184 392.85 74.7065 392.843 75.297L392.211 75.0861C392.19 75.6203 392.14 76.6818 392.119 77.2161L391.508 77.1388C391.515 77.7293 391.529 78.9174 391.536 79.5149C391.374 79.4516 391.051 79.3391 390.889 79.2759C390.664 80.4991 390.341 81.7012 390.031 82.9103L389.574 82.826C389.314 84.2671 388.893 85.666 388.429 87.0579C380.183 87.1212 371.936 87.1423 363.69 87.0509C363.986 86.2355 364.281 85.42 364.625 84.6256C364.682 84.1827 364.794 83.2899 364.85 82.847L365.441 82.8822C365.448 82.3198 365.462 81.2091 365.462 80.6537L365.996 80.8506C366.306 79.3673 366.692 77.905 367.002 76.4358C367.149 76.4991 367.444 76.6326 367.592 76.6959C367.606 76.1124 367.627 74.9455 367.641 74.362L368.084 74.4393C368.478 72.9912 368.886 71.55 369.174 70.0808L369.434 70.3058C369.694 69.3848 370.01 68.485 370.376 67.6063L370.095 66.8119C370.327 66.8189 370.791 66.84 371.023 66.8541C371.044 66.2706 371.079 65.1107 371.1 64.5272L371.557 64.5623C371.782 63.7398 372.035 62.9244 372.316 62.116C372.372 61.645 372.478 60.7029 372.534 60.239L373.153 60.4499C373.181 59.9859 373.237 59.065 373.272 58.608C373.673 57.659 374.081 56.717 374.538 55.7961C374.566 55.4376 374.629 54.7205 374.657 54.362C375.1 53.4411 375.508 52.4991 375.929 51.5641C375.958 51.1142 376.007 50.2144 376.035 49.7645L376.527 49.9121C376.836 48.6889 377.23 47.4938 377.567 46.2847L378.109 46.2495C378.088 45.7153 378.038 44.6467 378.017 44.1124L378.629 44.246C378.903 42.7768 379.283 41.3427 379.634 39.8945L380.07 40.0703C380.204 38.9103 380.33 37.7223 380.977 36.717C380.928 36.4921 380.829 36.0492 380.773 35.8313L381.378 35.8734C381.56 34.4675 382.01 33.1248 382.566 31.8313C382.805 31.0228 383.016 30.2144 383.212 29.406L383.536 29.4552C384.077 27.529 384.928 25.6942 385.258 23.7118L385.666 23.8313C385.842 22.7135 386.074 21.6028 386.481 20.5413C386.474 20.3093 386.453 19.8453 386.439 19.6133L387.135 19.6625C387.198 18.6924 387.269 17.7293 387.339 16.7662L387.866 16.8717C388.126 15.6274 388.457 14.4042 388.745 13.174L389.293 13.3075C389.321 12.8436 389.378 11.9156 389.406 11.4446C390.65 9.23724 391.17 6.72759 392.14 4.4007C392.098 4.16871 392.021 3.69069 391.979 3.4587L392.808 3.43761C392.836 2.9174 392.9 1.884 392.928 1.36379Z" fill="#FF7F26"/>
<path d="M485.94 1.38488C492.632 1.27943 499.325 1.33566 506.017 1.35675C506.017 3.60631 505.961 5.85588 505.954 8.10543C505.146 15.6063 505.715 23.1845 505.448 30.7205C505.736 30.7205 506.32 30.7346 506.608 30.7416C506.692 29.9473 506.798 29.1599 506.903 28.3726C507.177 27.543 507.423 26.7135 507.662 25.8769L507.957 26.0035C508.161 24.5342 508.618 23.1283 509.054 21.7153L509.497 21.8348C509.518 21.2372 509.546 20.0562 509.567 19.4657L510.193 19.6766C510.235 19.1915 510.334 18.2144 510.376 17.7293C510.664 16.942 510.938 16.1546 511.205 15.3603L511.613 15.3532C511.634 14.8119 511.676 13.7153 511.697 13.167L512.569 13.2724C512.534 13.0474 512.457 12.5905 512.421 12.3655C512.717 11.4517 512.998 10.5378 513.272 9.61685L513.771 9.83478C513.799 8.88574 513.827 7.94374 513.863 7.00174L514.376 6.98065C514.798 5.04041 515.493 3.18453 516.196 1.3427C522.973 1.30755 529.743 1.37081 536.52 1.31458C536.443 2.50965 536.351 3.71176 536.274 4.91387L535.62 4.8506C535.599 5.28645 535.564 6.1652 535.543 6.60105C535.114 7.54306 534.713 8.48505 534.277 9.42705C534.249 9.86291 534.186 10.7487 534.151 11.1845L533.588 11.1564C533.525 11.5922 533.406 12.464 533.349 12.8998C533.054 13.7504 532.794 14.6081 532.562 15.4798L532.154 15.1564C532.098 16.0562 532.035 16.9631 531.964 17.877C531.768 18.1511 531.374 18.6924 531.177 18.9666L530.931 18.8541C530.179 22.3831 528.773 25.7434 527.655 29.174C527.409 29.9965 527.191 30.833 526.994 31.6766L526.516 31.5149C526.446 32.5272 526.383 33.5536 526.334 34.5729L525.49 34.369C525.61 34.6995 525.841 35.3743 525.961 35.7047L525.146 35.7118C525.124 36.2812 525.096 37.427 525.075 37.9965L524.541 37.7996C524.267 38.6995 523.986 39.5993 523.697 40.4991C523.733 40.7241 523.796 41.1669 523.831 41.3919L523.015 41.3638C522.945 42.369 522.882 43.3813 522.833 44.3936L522.066 44.2038C522.109 44.4499 522.186 44.9279 522.228 45.1669C521.771 46.2073 521.483 47.29 521.356 48.4288C521.265 48.4007 521.075 48.3374 520.984 48.3093C520.745 49.2161 520.492 50.116 520.239 51.0228C520.204 51.1423 520.147 51.3743 520.119 51.4938C519.543 52.5202 519.381 53.6801 519.247 54.833L518.502 54.7486C518.559 54.9736 518.657 55.4235 518.706 55.6485C518.32 56.5272 518.003 57.434 517.757 58.369L517.286 58.116C517.272 58.7065 517.251 59.8945 517.237 60.4921L516.632 60.2882C516.611 60.8435 516.562 61.9472 516.534 62.5026L515.915 62.4604C515.908 63.0158 515.887 64.1195 515.88 64.6748L515.191 64.4709C515.177 65.0404 515.135 66.1722 515.121 66.7416L514.516 66.7486C514.502 67.2688 514.474 68.3093 514.46 68.8295L513.771 68.71C513.778 69.2934 513.792 70.4463 513.799 71.0298L513.272 70.8119C513.033 71.6836 512.787 72.5483 512.527 73.42C512.471 73.8629 512.351 74.7557 512.288 75.2056L511.733 75.065C511.43 77.0755 510.151 78.7978 510.123 80.8646L509.792 80.717C509.553 81.5465 509.293 82.369 509.026 83.1915C508.97 83.6555 508.864 84.5904 508.808 85.0614L508.189 84.8716C508.168 85.42 508.112 86.5096 508.091 87.0579C500.892 87.1071 493.694 87.1704 486.502 87.0157C486.502 85.8207 486.495 84.6256 486.474 83.4375L487.008 83.6976C486.987 79.6625 487.17 75.6274 487.212 71.5992L487.648 71.6274C487.62 67.8031 487.676 63.9789 487.81 60.1616L486.502 60.253C486.228 61.9191 485.659 63.5079 484.984 65.0474C485.026 65.2934 485.117 65.7785 485.16 66.0246L484.288 65.8347C484.267 66.4393 484.225 67.6344 484.204 68.2319L483.824 68.0984C483.557 68.9349 483.276 69.7645 482.98 70.594C482.938 71.0579 482.847 71.9859 482.805 72.4499L482.355 72.246C482.123 73.1036 481.87 73.9543 481.603 74.8119C481.546 75.2829 481.427 76.2319 481.363 76.7029L480.731 76.3795C480.724 76.9841 480.71 78.1862 480.703 78.7838L480.295 78.601C480.035 79.4446 479.761 80.2952 479.465 81.1388C479.416 81.5887 479.318 82.4955 479.269 82.9525L478.474 82.9244C478.523 83.1845 478.629 83.6976 478.685 83.9577C478.193 84.8646 477.736 85.7925 477.258 86.7064L477.328 87.1212C470.439 87.0649 463.557 87.1282 456.675 87.0861C456.759 86.123 456.85 85.1599 456.949 84.2038C457.082 84.253 457.342 84.3444 457.476 84.3866C457.715 83.1282 458.031 81.891 458.313 80.6467L458.903 80.7803C458.931 80.2319 458.973 79.1423 458.994 78.594L459.479 78.6572C459.887 77.2372 460.309 75.8242 460.562 74.369L460.921 74.5026C461.11 73.6801 461.321 72.8576 461.56 72.0491C462.038 70.7627 462.453 69.4481 462.678 68.0913L463.128 68.1687C463.184 67.7258 463.29 66.847 463.346 66.4112C463.613 65.5746 463.873 64.7381 464.112 63.8945L464.478 64.007C464.611 63.1493 464.78 62.3057 464.984 61.4692C465.483 60.4147 465.926 59.3321 466.2 58.2003L466.622 58.3339C466.678 57.884 466.798 56.9841 466.861 56.5342C467.128 55.7117 467.381 54.8822 467.62 54.0457L468.126 54.123C468.112 53.5606 468.084 52.4358 468.07 51.8734C468.218 51.8805 468.52 51.9015 468.675 51.9156C468.843 51.311 469.174 50.1019 469.342 49.4973C469.406 49.0263 469.525 48.0913 469.581 47.6203L470.165 47.8383C470.214 47.3884 470.312 46.4885 470.362 46.0457C470.629 45.2021 470.882 44.3585 471.128 43.5219L471.634 43.536C471.634 42.9595 471.634 41.8137 471.634 41.2443L472.393 41.3075C472.379 41.1037 472.358 40.6959 472.351 40.485C472.682 39.5922 472.97 38.6783 473.216 37.7574L473.68 37.9613C473.708 37.4903 473.75 36.5553 473.778 36.0914C474.193 35.1423 474.594 34.1863 475.051 33.2583C475.072 32.8014 475.114 31.8875 475.135 31.4235L475.754 31.6274C475.817 31.1775 475.936 30.2706 475.993 29.8207C476.253 28.9631 476.499 28.1054 476.724 27.2478L477.054 27.4657C477.265 25.9613 477.715 24.5132 478.151 23.065L478.854 23.0369C478.776 22.826 478.622 22.4042 478.544 22.1933C479.472 20.7733 479.859 19.0931 480.168 17.4481L480.583 17.5255C480.689 16.1265 481.11 14.7908 481.778 13.5606C481.961 12.703 482.123 11.8453 482.27 10.9806L482.699 11.2126C482.917 9.75043 483.325 8.33742 483.725 6.92442L484.07 6.93847C484.196 5.56062 484.689 4.27415 485.188 3.00878C485.378 2.60104 485.75 1.79261 485.94 1.38488Z" fill="#FF7F26"/>
<path d="M0.822494 99.2759L0.449911 98.4323C171.128 98.4604 341.814 98.4463 512.492 98.4463C512.513 100.33 512.527 102.221 512.569 104.119C341.715 104.07 170.854 104.253 0 104.021C0.0281195 102.292 0.0281195 100.562 0 98.84L0.822494 99.2759Z" fill="#FF7F26"/>
</svg>
