<svg width="189" height="103" viewBox="0 0 189 103" fill="none" xmlns="http://www.w3.org/2000/svg">
<path d="M30.0386 2.53602C30.0738 2.00175 30.13 0.933213 30.1652 0.391913C46.84 0.244285 63.5149 0.384879 80.1897 0.32161C80.1265 1.55887 80.0562 2.79612 79.9929 4.03338L79.3602 3.67485C79.3532 4.26536 79.3321 5.43935 79.318 6.02986L78.6643 5.74164C78.6643 6.3462 78.6572 7.56238 78.6572 8.16695L77.891 7.97011C77.9121 8.54656 77.9613 9.69946 77.9824 10.2759L77.2934 9.94551C77.2723 10.536 77.2372 11.717 77.2161 12.3005L76.485 12.2021C76.5131 12.8067 76.5553 14.0228 76.5764 14.6274L75.8453 14.1845C75.8312 14.7961 75.8101 16.0123 75.7961 16.6168C75.5852 16.6028 75.1704 16.5817 74.9666 16.5676L75.2829 17.7627C70.7908 17.826 66.2987 17.6503 61.8137 17.9033C61.7855 18.8453 61.7504 19.7943 61.7293 20.7434L60.8224 20.7575C60.942 21.0879 61.188 21.7487 61.3075 22.072L60.3796 22.1283C60.4007 22.6836 60.4428 23.8014 60.4639 24.3567C60.2671 24.2935 59.8734 24.1599 59.6766 24.0966C59.6625 24.7082 59.6344 25.9314 59.6203 26.543L58.9666 26.2407C58.9525 26.7891 58.9174 27.8857 58.8963 28.4341L58.2495 28.3427C58.2425 28.9402 58.2355 30.1283 58.2284 30.7188L57.5254 30.3884C57.5254 30.9578 57.5184 32.1037 57.5114 32.6801L56.8717 32.5606C56.8646 33.123 56.8435 34.2478 56.8365 34.8031L56.1195 34.6344C56.1124 35.239 56.1054 36.4552 56.1054 37.0597L55.4516 36.6731C55.4376 37.2917 55.4094 38.5219 55.3954 39.1335L54.7065 38.9016C54.7135 39.4921 54.7276 40.6871 54.7346 41.2847L53.7785 41.0527C53.9051 41.4042 54.1722 42.1001 54.3058 42.4516L53.3989 42.4587C53.3708 43.0211 53.3145 44.1318 53.2864 44.6942L52.5694 44.4973C52.5975 45.116 52.6608 46.3532 52.6959 46.9718C52.5061 46.8594 52.1406 46.6414 51.9578 46.529C51.9297 47.1335 51.8734 48.3356 51.8453 48.9402L51.2056 48.7785C51.2267 49.3479 51.2688 50.4727 51.2899 51.0421L50.4674 50.8172C50.4815 51.4147 50.5026 52.6028 50.5167 53.2003L49.8558 52.9332C49.8418 53.4885 49.8066 54.5922 49.7926 55.1476L49.0966 54.9789C49.1037 55.6045 49.1107 56.8488 49.1107 57.4745L48.4358 57.1089C48.4077 57.7205 48.3585 58.9507 48.3304 59.5694L47.2899 59.3585C47.543 59.71 48.0492 60.3989 48.3022 60.7434L47.079 60.7012C47.0509 61.2987 46.9947 62.5079 46.9736 63.1124L46.3268 62.7539C46.3128 63.3585 46.2776 64.5676 46.2636 65.1722L45.6379 64.891C45.6309 65.4956 45.6239 66.7117 45.6239 67.3163L45.0826 67.0562C44.7943 68.5325 44.4007 69.9877 44.0562 71.4569L43.4446 71.2108C43.4657 71.8154 43.5079 73.0316 43.529 73.6362C43.3462 73.5448 42.9877 73.362 42.8049 73.2706C42.7979 73.847 42.7838 75.007 42.7768 75.5834L42.0738 75.5623C42.1019 76.1318 42.1441 77.2565 42.1652 77.826L41.4059 77.4534C41.3989 78.072 41.3778 79.3163 41.3708 79.942C41.1458 79.9068 40.6889 79.8506 40.4569 79.8154L40.956 81.1159L40.0281 81.0245C40.014 81.6643 39.9929 82.9437 39.9789 83.5834C39.8031 83.4639 39.4446 83.239 39.2618 83.1194C39.2689 83.71 39.2759 84.891 39.2829 85.4815L38.5378 85.376L38.6573 86.1142C30.5799 86.072 22.5026 86.1282 14.4253 86.079C14.5378 85.137 14.6432 84.188 14.7487 83.253C14.9174 83.26 15.2548 83.2671 15.4235 83.2741C15.3954 82.7258 15.3532 81.6362 15.3251 81.0878L16.1265 81.3479C16.1336 80.7293 16.1406 79.4991 16.1476 78.8875L17.4622 79.0281C17.1037 78.6625 16.3866 77.9244 16.0211 77.5588C16.3655 77.6151 17.0474 77.7416 17.3919 77.7978C17.427 77.0316 17.4903 75.485 17.5184 74.7187L18.4464 74.8523C18.3128 74.5078 18.0527 73.8189 17.9191 73.4745L18.7979 73.4042C18.8471 72.434 18.9033 71.4569 18.9596 70.4938L19.7891 70.6063C19.7258 70.3813 19.5923 69.9244 19.529 69.6994C20.0914 68.5957 20.3796 67.4007 20.5202 66.1915L21.2864 66.3813C21.1318 66.0439 20.8295 65.355 20.6819 65.0175L21.6801 65.1651C21.7082 64.5465 21.7645 63.3093 21.7996 62.6906L22.6854 62.9156C22.5237 62.5641 22.2074 61.8681 22.0527 61.5166C22.2987 61.5166 22.7979 61.5167 23.0509 61.5237C23.058 60.7855 23.0861 59.3093 23.0931 58.5711C23.2689 58.6133 23.6274 58.6977 23.8031 58.7469C23.8172 58.1915 23.8524 57.0949 23.8664 56.5465L24.5413 56.5746C24.5202 56.0263 24.485 54.9226 24.4639 54.3743L25.2021 54.7188C25.2161 54.072 25.2443 52.7926 25.2583 52.1458L25.7715 52.4762C26.13 50.9578 26.5378 49.4604 26.8119 47.9349L27.6485 48.1388C27.5009 47.8084 27.2056 47.1406 27.065 46.8102H27.9789C28 46.2267 28.0281 45.0527 28.0422 44.4622L28.7733 44.8769C28.7451 44.2443 28.6959 42.9859 28.6678 42.3532C28.8436 42.4024 29.2021 42.5079 29.3778 42.5571C29.3989 41.9947 29.4411 40.8559 29.4622 40.2864L30.0949 40.5676C30.1089 39.9279 30.13 38.6555 30.1371 38.0228L30.8822 38.3813C30.8541 37.7908 30.8049 36.6168 30.7768 36.0334C30.9666 36.1247 31.3321 36.3216 31.5219 36.413C31.5219 35.8014 31.5219 34.5712 31.5219 33.9596L32.253 34.1494C32.232 33.587 32.2038 32.4622 32.1898 31.8998L32.942 32.0966C32.956 31.5202 32.9701 30.3602 32.9842 29.7768L33.5676 29.9806C33.6028 29.4042 33.6661 28.2443 33.7012 27.6678L34.6924 27.7241C34.5378 27.3866 34.2214 26.7258 34.0668 26.3954L34.9595 26.4727C34.9947 25.8752 35.0509 24.6731 35.0861 24.0685L35.7047 24.406C35.7117 23.7592 35.7188 22.4657 35.7258 21.819L36.4218 22.4165C36.4358 21.7627 36.471 20.4411 36.485 19.7803L37.0544 20.0756C37.1037 19.5061 37.2021 18.3743 37.2513 17.8049C33.4552 17.7627 29.6661 17.7487 25.877 17.8049L25.891 17.3691C25.3778 17.2495 24.3585 17.0035 23.8453 16.877C24.239 16.7504 25.0263 16.4833 25.42 16.3497C25.3075 16.0334 25.0896 15.4007 24.9842 15.0914L25.8277 15.2039C25.8488 14.6134 25.898 13.4323 25.9191 12.8418L26.5448 13.0949C26.5799 12.0826 26.6221 11.0844 26.6573 10.0861L27.2618 10.3181C27.4095 8.01932 28.8998 6.06501 28.9209 3.73812L29.7082 3.82249C29.5747 3.47803 29.3005 2.79612 29.1669 2.45166L30.0386 2.53602Z" fill="#FF7F26"/>
<path d="M91.8875 0.356788C103.241 0.307578 114.594 0.349759 125.947 0.335699C125.863 2.28297 125.729 4.23025 125.687 6.17752C125.532 6.0791 125.223 5.86821 125.068 5.76276C125.061 7.0422 125.054 8.32164 125.04 9.6081L124.394 9.34096C124.373 10.6345 124.344 11.9209 124.344 13.2215L123.796 12.8278C123.768 15.3304 122.952 17.7346 122.819 20.2373L122.334 19.8577C122.292 21.3691 122.228 22.8875 122.179 24.406L121.568 24.0475C121.532 25.3269 121.49 26.5993 121.469 27.8858L121.026 27.6046C120.773 30.3181 119.831 32.9332 120.021 35.696L119.494 35.2671C119.487 35.8717 119.473 37.0808 119.466 37.6854C119.297 37.6432 118.974 37.5659 118.812 37.5237C118.784 39.2601 118.713 41.0035 118.685 42.7539L118.088 42.2478C118.046 43.3093 118.003 44.3708 117.961 45.4394L117.406 45.1863C117.378 46.7118 117.322 48.2302 117.286 49.7557C117.132 49.6503 116.822 49.4253 116.668 49.3199C116.612 50.6134 116.569 51.9139 116.541 53.2144L115.972 52.891C115.951 54.1634 115.902 55.4359 115.887 56.7223C115.726 56.652 115.402 56.5044 115.241 56.4341C115.22 57.7135 115.199 58.993 115.177 60.2794L114.587 59.8998C114.538 61.4042 114.467 62.9086 114.425 64.42L113.807 64.2162C113.793 65.2285 113.778 66.2478 113.764 67.2671L113.174 66.9367C113.153 68.4552 113.097 69.9736 113.061 71.4921L112.401 71.2109C112.365 72.4411 112.323 73.6784 112.302 74.9156L111.754 74.7399C111.74 75.9631 111.705 77.1933 111.691 78.4235L111.051 78.1353C111.065 80.6169 110.355 83.0211 110.179 85.4885L109.497 85.3269L109.666 86.1142C101.392 86.065 93.1247 86.1353 84.8506 86.0791C84.8717 85.5307 84.9209 84.4411 84.949 83.8928L85.6238 84.1669C85.652 82.8945 85.7012 81.6151 85.7363 80.3497L86.3409 80.6239C86.3479 80.0474 86.362 78.9016 86.369 78.3321L87.0579 78.4798C87.0579 77.4534 87.0509 76.4341 87.0579 75.4148L87.8101 75.6959C87.8312 74.6977 87.8453 73.6995 87.8664 72.7153L88.5131 72.8067C88.485 72.4341 88.4217 71.6959 88.3936 71.3304C86.376 71.3023 84.3514 71.3304 82.3409 71.4358C82.2636 72.3849 82.1933 73.3269 82.123 74.2829L81.1669 74.1283C81.2724 74.3884 81.4692 74.9086 81.5746 75.1687C81.0263 76.1177 80.492 77.0808 79.9367 78.0369L80.2741 78.9437C80 78.9859 79.4446 79.0843 79.1704 79.1265C79.2478 79.4429 79.4094 80.0755 79.4868 80.3919L78.5307 80.5184C78.6151 80.8629 78.7908 81.5588 78.8752 81.9033L77.9894 81.826C77.9754 82.3954 77.9543 83.5413 77.9472 84.1177L77.2794 83.8928C77.2232 84.42 77.1107 85.4745 77.0544 86.0017C68.4499 86.2126 59.8383 86.072 51.2267 86.0791C51.2267 85.7205 51.2337 85.0035 51.2407 84.645L52.1054 84.6098L51.8172 83.3163C52.0703 83.3023 52.5694 83.2812 52.8225 83.2741C52.7451 82.9086 52.5764 82.1775 52.4921 81.8119L53.5255 81.833L53.2091 80.5536C53.4762 80.5184 54.0105 80.4411 54.2776 80.406L53.8629 79.1687C54.1371 79.1195 54.6854 79.0351 54.9595 78.9859C54.8611 78.6625 54.6573 78.0088 54.5518 77.6854L55.536 77.5799C55.4657 77.2495 55.3321 76.5817 55.2618 76.2513L56.2671 76.2021C56.1827 75.8647 56.014 75.1757 55.9297 74.8313L56.942 74.7891C56.8787 74.4587 56.7592 73.7838 56.6959 73.4464L57.659 73.3128C57.5747 72.9824 57.4059 72.3146 57.3146 71.9842L58.0457 72.1037C58.369 70.8875 58.7838 69.7065 59.1494 68.5114L59.9015 68.4692L59.4727 67.1898C59.7609 67.1546 60.3304 67.0844 60.6186 67.0492L60.1687 65.819C60.4288 65.7838 60.942 65.7135 61.2021 65.6713C61.1458 65.3128 61.0263 64.5958 60.9631 64.2302L61.9965 64.2794C61.898 63.942 61.6871 63.2671 61.5887 62.9297L62.6291 62.8805C62.5448 62.536 62.3831 61.8471 62.2987 61.5026L63.2829 61.3972C63.1986 61.0597 63.0298 60.3989 62.9455 60.0615L63.9297 60.0896C63.8875 59.7241 63.7961 59 63.7539 58.6344L64.5905 58.5923C64.5623 58.2408 64.4921 57.5448 64.4569 57.2003H65.4903C65.3638 56.8699 65.1107 56.2091 64.9771 55.8787L65.9191 55.9279C65.9613 55.3304 66.0457 54.1423 66.0949 53.5448L66.9244 53.7979C66.8189 53.4464 66.6151 52.7504 66.5096 52.3989L67.5782 52.3076C67.4938 51.9701 67.3251 51.3093 67.2337 50.9719L68.239 50.8664C68.1687 50.5431 68.0351 49.8963 67.9648 49.5729L68.9701 49.4956C68.8857 49.1511 68.724 48.4552 68.6397 48.1107L69.7012 48.0896C69.6168 47.7592 69.4622 47.1054 69.3848 46.775L70.3479 46.6837C70.2565 46.3392 70.0738 45.6503 69.9824 45.3058H70.6502C70.9314 44.3989 71.2829 43.5273 71.6625 42.6626C72.6467 41.0527 73.6239 39.3796 73.905 37.4886L74.608 37.5518C74.5166 37.2214 74.3339 36.5606 74.2425 36.2302L75.2899 36.1459C75.2056 35.8225 75.0509 35.1687 74.9736 34.8383L75.9789 34.7329C75.8945 34.4025 75.7328 33.7417 75.6555 33.4042L76.6959 33.341C76.6186 33.0176 76.4639 32.3708 76.3866 32.0475L77.3848 31.8436C77.2935 31.5272 77.1107 30.8875 77.0193 30.5642L77.884 30.6696C77.9121 30.0932 77.9683 28.9543 77.9964 28.3849L78.8892 28.4552C78.7978 28.1248 78.6221 27.457 78.5307 27.1195L79.5079 27.0141C79.4446 26.6837 79.3251 26.0229 79.2618 25.6925L80.246 25.6292C80.1757 25.2918 80.0281 24.6169 79.9578 24.2724L80.956 24.2162C80.8857 23.8928 80.7521 23.2461 80.6818 22.9227L81.652 22.768C81.5536 22.4376 81.3567 21.7768 81.2653 21.4534L82.3339 21.3831C82.2495 21.0598 82.0808 20.413 82.0035 20.0896L82.9244 19.8998C82.8822 19.5835 82.7908 18.9438 82.7486 18.6204L83.768 18.5571C83.6625 18.2197 83.4446 17.5519 83.3391 17.2215L84.3936 17.2285C84.3233 16.87 84.1898 16.1529 84.1265 15.8014L84.8998 15.8295C84.9279 15.2882 84.9912 14.1986 85.0193 13.6573L85.9191 13.6925C85.8207 13.3621 85.6379 12.6942 85.5395 12.3638L86.5518 12.2795C86.4885 11.9561 86.369 11.3093 86.3057 10.986L87.2407 10.8875C87.1774 10.5431 87.065 9.85416 87.0087 9.5097L87.9859 9.48157C87.9226 9.15117 87.7961 8.49739 87.7328 8.16699L88.6186 8.06154C88.5412 7.71005 88.3936 7.00706 88.3233 6.64853C88.6045 6.62744 89.1599 6.5923 89.4411 6.57121L88.9209 5.34099C89.2161 5.29881 89.7996 5.20038 90.0948 5.1582L89.652 3.89985C89.9402 3.8647 90.5096 3.79441 90.7908 3.75926L90.3479 2.50793C90.6572 2.45872 91.2688 2.36734 91.5711 2.31813L91.0158 1.03869L92.0773 1.17929L91.8875 0.356788ZM95.8312 37.4534C95.5992 38.3111 95.3532 39.1687 95.0931 40.0264C94.4463 41.5659 93.6168 43.0351 93.195 44.6731L92.4077 44.6169C92.5272 44.9543 92.7592 45.6292 92.8787 45.9666L91.8734 46.1283C91.9437 46.4376 92.0913 47.0633 92.1616 47.3796L91.2688 47.3585C91.2759 47.9069 91.2829 48.9965 91.2899 49.5378L90.3198 49.5237C90.4253 49.8471 90.6432 50.4938 90.7557 50.8172L89.7715 50.993C89.8418 51.3234 89.9824 51.9701 90.0527 52.2935L88.949 52.4411C89.0826 52.7715 89.3427 53.4183 89.4762 53.7487L88.5975 53.6432C88.5342 54.3462 88.4217 55.7381 88.3655 56.4411C89.6028 56.4341 90.84 56.4411 92.0773 56.4622L92.0843 55.8084C92.4077 55.8576 93.0474 55.9631 93.3708 56.0123C93.4059 55.0211 93.4481 54.0369 93.4832 53.0527L93.9472 53.1371C94.2987 49.2004 96.2882 45.58 96.3233 41.6011L96.9138 41.9033C96.9349 40.7012 96.9701 39.5062 96.9841 38.3111L98.8752 37.8401C97.8629 37.6924 96.8435 37.5659 95.8312 37.4534Z" fill="#FF7F26"/>
<path d="M141.982 0.398913C153.237 0.272375 164.492 0.300515 175.747 0.420023L175.564 0.912101C176.787 0.94725 178.01 0.996468 179.241 1.05271L179.072 1.6643C180.077 1.67133 181.09 1.6854 182.102 1.71352C182.081 1.93847 182.039 2.39541 182.017 2.62739L183.093 2.28293C183.416 2.59928 184.077 3.23196 184.408 3.5483C184.991 4.01227 185.575 4.47625 186.172 4.93319C186.158 5.1722 186.137 5.65726 186.123 5.89628L187.058 6.02281C186.995 6.33916 186.875 6.97186 186.812 7.2882L187.81 7.40068C187.705 7.73812 187.501 8.41298 187.402 8.75744L188.267 8.65901C188.274 11.3233 188.274 13.9806 188.267 16.645L187.634 16.3778C187.599 17.3761 187.571 18.3813 187.543 19.3866L186.945 19.2671C186.917 20.2583 186.889 21.2495 186.868 22.2478L186.348 22.0439C186.306 23.7522 185.666 25.3339 184.773 26.775C184.836 27.0211 184.949 27.5202 185.005 27.7732L184.323 27.6959C183.937 29.2284 183.213 30.6344 182.538 32.0544L181.989 32.1177C182.003 32.4341 182.039 33.0527 182.053 33.369L181.434 33.2706C181.188 33.5237 180.703 34.0228 180.457 34.2689L180.759 34.8383L179.831 34.7117L179.951 35.6045L179.072 35.3866L179.276 36.2583L178.404 35.956C178.383 36.2091 178.341 36.7012 178.32 36.9472L177.075 36.7785L176.928 37.7275C176.626 37.6362 176.014 37.4604 175.712 37.369L175.74 38.2337C175.163 38.2478 174.01 38.2688 173.441 38.2829L173.68 38.9578C173.075 39.0281 171.852 39.1616 171.248 39.2319C171.873 40.3427 172.9 41.0948 173.898 41.8541C174.144 41.8049 174.643 41.6994 174.889 41.6432L174.854 42.6133L175.395 42.4727C175.655 42.7258 176.176 43.2319 176.436 43.485L176.316 44.0615L177.307 43.963C177.174 44.2934 176.9 44.9402 176.766 45.2636L177.764 45.2355C177.954 48.1247 177.821 51.021 177.673 53.9173L177.068 53.5237C177.068 54.2829 177.068 55.8013 177.075 56.5606C176.921 56.5395 176.626 56.4903 176.478 56.4692C176.169 58.7398 174.91 60.7644 174.72 63.0773L173.947 62.8945C174.095 63.2319 174.39 63.9068 174.538 64.2442L173.786 64.2231C173.568 65.7064 173.054 67.1194 172.576 68.5395C172.415 68.5535 172.091 68.5816 171.93 68.5887C172.056 68.9191 172.316 69.5729 172.443 69.9033L171.508 69.8611C171.459 70.4868 171.367 71.731 171.318 72.3497L170.474 72.0122L170.889 73.2565C170.643 73.3268 170.144 73.4604 169.891 73.5307C169.961 73.84 170.102 74.4657 170.172 74.775L169.111 74.9156L169.497 76.2091C169.251 76.181 168.752 76.1247 168.499 76.1036L168.731 77.0034L168.119 76.8558C167.747 77.608 167.374 78.3602 167.009 79.1194L166.411 79.0773C166.425 79.4006 166.446 80.0544 166.46 80.3778C166.123 80.3778 165.455 80.3707 165.118 80.3637L165.209 80.9613C164.942 81.2143 164.408 81.7205 164.141 81.9806L163.571 81.847L163.655 82.8031C163.346 82.7047 162.728 82.5078 162.425 82.4094L162.362 83.3163L161.462 83.0702L161.757 83.8927C161.174 83.9138 160 83.956 159.416 83.9771L159.62 84.5395C158.728 84.7363 157.849 84.9542 156.97 85.1933C155.648 85.3128 154.327 85.4182 153.012 85.5026L153.336 86.0298C139.824 86.1212 126.32 86.1634 112.815 86.0298C113.069 85.4042 113.582 84.1528 113.842 83.5272C113.771 83.2952 113.645 82.8171 113.582 82.5852L114.446 82.6695C114.46 81.9033 114.489 80.3778 114.503 79.6185C114.636 79.7029 114.903 79.8716 115.037 79.963C115.234 78.9788 115.515 78.0228 115.887 77.1019C115.824 76.8839 115.698 76.4551 115.634 76.2372L116.583 76.3215C116.562 75.7451 116.534 74.5992 116.513 74.0228L117.132 74.1774C117.469 72.7152 117.891 71.2811 118.144 69.8119C118.299 69.8892 118.601 70.0439 118.756 70.1282C118.756 69.5377 118.756 68.3708 118.756 67.7873L119.592 67.7662C119.487 67.4217 119.269 66.7328 119.156 66.3883H120.056C120.084 65.4042 120.112 64.42 120.148 63.4428L120.682 63.7311C121.061 62.1775 121.483 60.6309 121.771 59.0562L122.228 59.5834C122.242 58.9929 122.264 57.7978 122.271 57.2003L123.184 57.2214C123.051 56.898 122.784 56.2442 122.65 55.9209L123.564 55.8857C123.585 55.3022 123.634 54.1353 123.655 53.5518L124.358 53.9455C124.366 53.3479 124.387 52.1458 124.394 51.5483L125.033 51.6748C125.026 51.1265 125.019 50.0228 125.019 49.4745C125.216 49.5026 125.61 49.5658 125.807 49.594C125.793 49.0035 125.75 47.8225 125.729 47.2319L126.214 47.4991C126.46 46.6344 126.735 45.7767 127.03 44.9332C127.072 44.4692 127.156 43.5483 127.199 43.0843L127.648 43.3725C127.824 42.4235 128.091 41.4955 128.45 40.6028C128.422 40.3708 128.38 39.9138 128.358 39.6889L129.167 39.6467C129.209 38.6414 129.258 37.6432 129.308 36.652L130.242 36.8348C130.102 36.5114 129.814 35.8576 129.673 35.5272L130.608 35.5764C130.622 34.9789 130.657 33.7697 130.671 33.1722L131.374 33.6221C131.374 32.9824 131.374 31.6959 131.374 31.0562L132.035 31.3233C132.049 30.7469 132.077 29.601 132.098 29.0246L132.731 29.3128C132.745 28.6801 132.759 27.4147 132.766 26.782L133.3 27.1054C133.596 25.6362 133.996 24.195 134.327 22.7328L134.924 22.8453C134.903 22.2759 134.847 21.137 134.819 20.5747L135.55 20.8488C135.571 20.2724 135.606 19.1124 135.62 18.536L136.197 18.7188C136.239 18.1283 136.316 16.9472 136.351 16.3497L136.935 16.6028C137.216 15.3444 137.568 14.1072 137.835 12.8488L138.341 13.1581C138.376 12.3778 138.446 10.8172 138.481 10.0369C138.728 10.058 139.206 10.1001 139.452 10.1212C139.297 9.7838 138.981 9.10893 138.826 8.77149L139.705 8.89805C139.726 8.30051 139.775 7.10541 139.796 6.50787L140.351 6.81017C140.52 5.65025 140.534 4.41298 141.244 3.41473C141.195 3.16869 141.111 2.6766 141.068 2.43056L141.793 2.58521C141.842 2.03688 141.933 0.947243 141.982 0.398913ZM161.483 15.8084C161.532 16.1318 161.624 16.7926 161.666 17.123L160.921 17.1441C160.914 17.6994 160.893 18.8102 160.886 19.3655L160.112 19.2109C160.126 19.7803 160.148 20.9261 160.162 21.4956L159.515 21.3198C159.501 21.8892 159.48 23.014 159.466 23.5834L158.924 23.4007C158.566 24.8488 158.151 26.2899 157.863 27.7662L157.518 27.6537C157.054 29.369 156.619 31.0843 156.358 32.8488C156.984 32.7855 158.235 32.659 158.861 32.6028L158.875 31.8717C159.163 31.8998 159.74 31.956 160.028 31.9912C160.084 31.4428 160.204 30.3602 160.26 29.8119L161.132 29.833C161.047 29.5237 160.893 28.891 160.808 28.5817L161.757 28.3216C161.659 27.9982 161.462 27.3444 161.364 27.0211L162.109 27.1476C162.397 25.4885 163.023 23.9279 163.684 22.3954C163.641 22.1493 163.543 21.6432 163.494 21.3972L164.351 21.362C164.387 19.7029 164.415 18.0509 164.443 16.3989L163.522 16.652L163.775 15.7311C163.206 15.7451 162.06 15.7873 161.483 15.8084ZM150.425 48.0333C150.397 48.6098 150.334 49.7557 150.299 50.3321L149.357 50.2899C149.497 50.6063 149.793 51.246 149.933 51.5623L148.998 51.5834C148.97 52.1529 148.921 53.2987 148.893 53.8681L148.267 53.5658C148.274 54.1915 148.288 55.4358 148.288 56.0615L147.536 55.717C147.529 56.3075 147.515 57.4956 147.508 58.0861L146.882 57.9173C146.868 58.4797 146.847 59.6045 146.833 60.1669L146.172 59.9349C146.165 60.5254 146.151 61.7064 146.144 62.2899L145.666 62.1212C145.427 62.9999 145.167 63.8716 144.879 64.7363C144.829 65.2003 144.738 66.1212 144.689 66.5781L144.028 66.2548C144.028 66.8383 144.028 68.0122 144.028 68.5957L143.381 68.434C143.346 68.8488 143.276 69.6783 143.241 70.0931C144.218 70.0368 145.202 69.9876 146.186 69.9455L146.025 69.0667L146.91 69.376L146.826 68.4481L147.761 68.4832C147.648 68.1599 147.431 67.5131 147.325 67.1897L148.401 67.1054C148.344 66.782 148.232 66.1282 148.183 65.8049L149.167 65.5729C149.033 65.2425 148.766 64.5887 148.626 64.2653L149.589 64.4762C149.638 63.478 149.687 62.4938 149.743 61.5026L150.608 61.4182C150.474 61.0808 150.207 60.4059 150.074 60.0685L150.826 60.2723C150.96 57.9314 152.26 55.9138 152.612 53.6291L152.977 53.8752C153.195 52.0966 153.638 50.3602 154.01 48.6238L153.019 49.0527L153.251 48.0685C152.302 48.0474 151.367 48.0404 150.425 48.0333Z" fill="#FF7F26"/>
<path d="M0.288837 97.8865L0.157996 97C60.0955 97.0296 120.035 97.0147 179.973 97.0147C179.98 98.9946 179.985 100.982 180 102.977C120.001 102.925 59.9992 103.117 0 102.873C0.00987478 101.056 0.00987478 99.2384 0 97.4284L0.288837 97.8865Z" fill="#FF7F26"/>
</svg>
