<svg width="77" height="103" viewBox="0 0 77 103" fill="none" xmlns="http://www.w3.org/2000/svg">
<path d="M26.0386 2.53602C26.0738 2.00175 26.13 0.933213 26.1652 0.391913C42.84 0.244285 59.5149 0.384879 76.1897 0.32161C76.1265 1.55887 76.0562 2.79612 75.9929 4.03338L75.3602 3.67485C75.3532 4.26536 75.3321 5.43935 75.318 6.02986L74.6643 5.74164C74.6643 6.3462 74.6572 7.56238 74.6572 8.16695L73.891 7.97011C73.9121 8.54656 73.9613 9.69946 73.9824 10.2759L73.2934 9.94551C73.2723 10.536 73.2372 11.717 73.2161 12.3005L72.485 12.2021C72.5131 12.8067 72.5553 14.0228 72.5764 14.6274L71.8453 14.1845C71.8312 14.7961 71.8101 16.0123 71.7961 16.6168C71.5852 16.6028 71.1704 16.5817 70.9666 16.5676L71.2829 17.7627C66.7908 17.826 62.2987 17.6503 57.8137 17.9033C57.7855 18.8453 57.7504 19.7943 57.7293 20.7434L56.8224 20.7575C56.942 21.0879 57.188 21.7487 57.3075 22.072L56.3796 22.1283C56.4007 22.6836 56.4428 23.8014 56.4639 24.3567C56.2671 24.2935 55.8734 24.1599 55.6766 24.0966C55.6625 24.7082 55.6344 25.9314 55.6203 26.543L54.9666 26.2407C54.9525 26.7891 54.9174 27.8857 54.8963 28.4341L54.2495 28.3427C54.2425 28.9402 54.2355 30.1283 54.2284 30.7188L53.5254 30.3884C53.5254 30.9578 53.5184 32.1037 53.5114 32.6801L52.8717 32.5606C52.8646 33.123 52.8435 34.2478 52.8365 34.8031L52.1195 34.6344C52.1124 35.239 52.1054 36.4552 52.1054 37.0597L51.4516 36.6731C51.4376 37.2917 51.4094 38.5219 51.3954 39.1335L50.7065 38.9016C50.7135 39.4921 50.7276 40.6871 50.7346 41.2847L49.7785 41.0527C49.9051 41.4042 50.1722 42.1001 50.3058 42.4516L49.3989 42.4587C49.3708 43.0211 49.3145 44.1318 49.2864 44.6942L48.5694 44.4973C48.5975 45.116 48.6608 46.3532 48.6959 46.9718C48.5061 46.8594 48.1406 46.6414 47.9578 46.529C47.9297 47.1335 47.8734 48.3356 47.8453 48.9402L47.2056 48.7785C47.2267 49.3479 47.2688 50.4727 47.2899 51.0421L46.4674 50.8172C46.4815 51.4147 46.5026 52.6028 46.5167 53.2003L45.8558 52.9332C45.8418 53.4885 45.8066 54.5922 45.7926 55.1476L45.0966 54.9789C45.1037 55.6045 45.1107 56.8488 45.1107 57.4745L44.4358 57.1089C44.4077 57.7205 44.3585 58.9507 44.3304 59.5694L43.2899 59.3585C43.543 59.71 44.0492 60.3989 44.3022 60.7434L43.079 60.7012C43.0509 61.2987 42.9947 62.5079 42.9736 63.1124L42.3268 62.7539C42.3128 63.3585 42.2776 64.5676 42.2636 65.1722L41.6379 64.891C41.6309 65.4956 41.6239 66.7117 41.6239 67.3163L41.0826 67.0562C40.7943 68.5325 40.4007 69.9877 40.0562 71.4569L39.4446 71.2108C39.4657 71.8154 39.5079 73.0316 39.529 73.6362C39.3462 73.5448 38.9877 73.362 38.8049 73.2706C38.7979 73.847 38.7838 75.007 38.7768 75.5834L38.0738 75.5623C38.1019 76.1318 38.1441 77.2565 38.1652 77.826L37.4059 77.4534C37.3989 78.072 37.3778 79.3163 37.3708 79.942C37.1458 79.9068 36.6889 79.8506 36.4569 79.8154L36.956 81.1159L36.0281 81.0245C36.014 81.6643 35.9929 82.9437 35.9789 83.5834C35.8031 83.4639 35.4446 83.239 35.2618 83.1194C35.2689 83.71 35.2759 84.891 35.2829 85.4815L34.5378 85.376L34.6573 86.1142C26.5799 86.072 18.5026 86.1282 10.4253 86.079C10.5378 85.137 10.6432 84.188 10.7487 83.253C10.9174 83.26 11.2548 83.2671 11.4235 83.2741C11.3954 82.7258 11.3532 81.6362 11.3251 81.0878L12.1265 81.3479C12.1336 80.7293 12.1406 79.4991 12.1476 78.8875L13.4622 79.0281C13.1037 78.6625 12.3866 77.9244 12.0211 77.5588C12.3655 77.6151 13.0474 77.7416 13.3919 77.7978C13.427 77.0316 13.4903 75.485 13.5184 74.7187L14.4464 74.8523C14.3128 74.5078 14.0527 73.8189 13.9191 73.4745L14.7979 73.4042C14.8471 72.434 14.9033 71.4569 14.9596 70.4938L15.7891 70.6063C15.7258 70.3813 15.5923 69.9244 15.529 69.6994C16.0914 68.5957 16.3796 67.4007 16.5202 66.1915L17.2864 66.3813C17.1318 66.0439 16.8295 65.355 16.6819 65.0175L17.6801 65.1651C17.7082 64.5465 17.7645 63.3093 17.7996 62.6906L18.6854 62.9156C18.5237 62.5641 18.2074 61.8681 18.0527 61.5166C18.2987 61.5166 18.7979 61.5167 19.0509 61.5237C19.058 60.7855 19.0861 59.3093 19.0931 58.5711C19.2689 58.6133 19.6274 58.6977 19.8031 58.7469C19.8172 58.1915 19.8524 57.0949 19.8664 56.5465L20.5413 56.5746C20.5202 56.0263 20.485 54.9226 20.4639 54.3743L21.2021 54.7188C21.2161 54.072 21.2443 52.7926 21.2583 52.1458L21.7715 52.4762C22.13 50.9578 22.5378 49.4604 22.8119 47.9349L23.6485 48.1388C23.5009 47.8084 23.2056 47.1406 23.065 46.8102H23.9789C24 46.2267 24.0281 45.0527 24.0422 44.4622L24.7733 44.8769C24.7451 44.2443 24.6959 42.9859 24.6678 42.3532C24.8436 42.4024 25.2021 42.5079 25.3778 42.5571C25.3989 41.9947 25.4411 40.8559 25.4622 40.2864L26.0949 40.5676C26.1089 39.9279 26.13 38.6555 26.1371 38.0228L26.8822 38.3813C26.8541 37.7908 26.8049 36.6168 26.7768 36.0334C26.9666 36.1247 27.3321 36.3216 27.5219 36.413C27.5219 35.8014 27.5219 34.5712 27.5219 33.9596L28.253 34.1494C28.232 33.587 28.2038 32.4622 28.1898 31.8998L28.942 32.0966C28.956 31.5202 28.9701 30.3602 28.9842 29.7768L29.5676 29.9806C29.6028 29.4042 29.6661 28.2443 29.7012 27.6678L30.6924 27.7241C30.5378 27.3866 30.2214 26.7258 30.0668 26.3954L30.9595 26.4727C30.9947 25.8752 31.0509 24.6731 31.0861 24.0685L31.7047 24.406C31.7117 23.7592 31.7188 22.4657 31.7258 21.819L32.4218 22.4165C32.4358 21.7627 32.471 20.4411 32.485 19.7803L33.0544 20.0756C33.1037 19.5061 33.2021 18.3743 33.2513 17.8049C29.4552 17.7627 25.6661 17.7487 21.877 17.8049L21.891 17.3691C21.3778 17.2495 20.3585 17.0035 19.8453 16.877C20.239 16.7504 21.0263 16.4833 21.42 16.3497C21.3075 16.0334 21.0896 15.4007 20.9842 15.0914L21.8277 15.2039C21.8488 14.6134 21.898 13.4323 21.9191 12.8418L22.5448 13.0949C22.5799 12.0826 22.6221 11.0844 22.6573 10.0861L23.2618 10.3181C23.4095 8.01932 24.8998 6.06501 24.9209 3.73812L25.7082 3.82249C25.5747 3.47803 25.3005 2.79612 25.1669 2.45166L26.0386 2.53602Z" fill="#FF7F26"/>
<path d="M0.0706046 97.8865L0.0386213 97C14.69 97.0296 29.342 97.0147 43.9934 97.0147C43.9952 98.9946 43.9964 100.982 44 102.977C29.3335 102.925 14.6665 103.117 0 102.873C0.00241384 101.056 0.00241384 99.2384 0 97.4284L0.0706046 97.8865Z" fill="#FF7F26"/>
</svg>
