<svg width="67" height="87" viewBox="0 0 67 87" fill="none" xmlns="http://www.w3.org/2000/svg">
<path d="M16.0386 2.53602C16.0738 2.00175 16.13 0.933213 16.1652 0.391913C32.84 0.244285 49.5149 0.384879 66.1897 0.32161C66.1265 1.55887 66.0562 2.79612 65.9929 4.03338L65.3602 3.67485C65.3532 4.26536 65.3321 5.43935 65.318 6.02986L64.6643 5.74164C64.6643 6.3462 64.6572 7.56238 64.6572 8.16695L63.891 7.97011C63.9121 8.54656 63.9613 9.69946 63.9824 10.2759L63.2934 9.94551C63.2723 10.536 63.2372 11.717 63.2161 12.3005L62.485 12.2021C62.5131 12.8067 62.5553 14.0228 62.5764 14.6274L61.8453 14.1845C61.8312 14.7961 61.8101 16.0123 61.7961 16.6168C61.5852 16.6028 61.1704 16.5817 60.9666 16.5676L61.2829 17.7627C56.7908 17.826 52.2987 17.6503 47.8137 17.9033C47.7855 18.8453 47.7504 19.7943 47.7293 20.7434L46.8224 20.7575C46.942 21.0879 47.188 21.7487 47.3075 22.072L46.3796 22.1283C46.4007 22.6836 46.4428 23.8014 46.4639 24.3567C46.2671 24.2935 45.8734 24.1599 45.6766 24.0966C45.6625 24.7082 45.6344 25.9314 45.6203 26.543L44.9666 26.2407C44.9525 26.7891 44.9174 27.8857 44.8963 28.4341L44.2495 28.3427C44.2425 28.9402 44.2355 30.1283 44.2284 30.7188L43.5254 30.3884C43.5254 30.9578 43.5184 32.1037 43.5114 32.6801L42.8717 32.5606C42.8646 33.123 42.8435 34.2478 42.8365 34.8031L42.1195 34.6344C42.1124 35.239 42.1054 36.4552 42.1054 37.0597L41.4516 36.6731C41.4376 37.2917 41.4094 38.5219 41.3954 39.1335L40.7065 38.9016C40.7135 39.4921 40.7276 40.6871 40.7346 41.2847L39.7785 41.0527C39.9051 41.4042 40.1722 42.1001 40.3058 42.4516L39.3989 42.4587C39.3708 43.0211 39.3145 44.1318 39.2864 44.6942L38.5694 44.4973C38.5975 45.116 38.6608 46.3532 38.6959 46.9718C38.5061 46.8594 38.1406 46.6414 37.9578 46.529C37.9297 47.1335 37.8734 48.3356 37.8453 48.9402L37.2056 48.7785C37.2267 49.3479 37.2688 50.4727 37.2899 51.0421L36.4674 50.8172C36.4815 51.4147 36.5026 52.6028 36.5167 53.2003L35.8558 52.9332C35.8418 53.4885 35.8066 54.5922 35.7926 55.1476L35.0966 54.9789C35.1037 55.6045 35.1107 56.8488 35.1107 57.4745L34.4358 57.1089C34.4077 57.7205 34.3585 58.9507 34.3304 59.5694L33.2899 59.3585C33.543 59.71 34.0492 60.3989 34.3022 60.7434L33.079 60.7012C33.0509 61.2987 32.9947 62.5079 32.9736 63.1124L32.3268 62.7539C32.3128 63.3585 32.2776 64.5676 32.2636 65.1722L31.6379 64.891C31.6309 65.4956 31.6239 66.7117 31.6239 67.3163L31.0826 67.0562C30.7943 68.5325 30.4007 69.9877 30.0562 71.4569L29.4446 71.2108C29.4657 71.8154 29.5079 73.0316 29.529 73.6362C29.3462 73.5448 28.9877 73.362 28.8049 73.2706C28.7979 73.847 28.7838 75.007 28.7768 75.5834L28.0738 75.5623C28.1019 76.1318 28.1441 77.2565 28.1652 77.826L27.4059 77.4534C27.3989 78.072 27.3778 79.3163 27.3708 79.942C27.1458 79.9068 26.6889 79.8506 26.4569 79.8154L26.956 81.1159L26.0281 81.0245C26.014 81.6643 25.9929 82.9437 25.9789 83.5834C25.8031 83.4639 25.4446 83.239 25.2618 83.1194C25.2689 83.71 25.2759 84.891 25.2829 85.4815L24.5378 85.376L24.6573 86.1142C16.5799 86.072 8.50262 86.1282 0.425293 86.079C0.537771 85.137 0.643218 84.188 0.748666 83.253C0.917383 83.26 1.25482 83.2671 1.42353 83.2741C1.39541 82.7258 1.35324 81.6362 1.32512 81.0878L2.12652 81.3479C2.13355 80.7293 2.14058 79.4991 2.14761 78.8875L3.4622 79.0281C3.10367 78.6625 2.38662 77.9244 2.02107 77.5588C2.36554 77.6151 3.04744 77.7416 3.3919 77.7978C3.42705 77.0316 3.49032 75.485 3.51844 74.7187L4.44638 74.8523C4.31281 74.5078 4.05271 73.8189 3.91914 73.4745L4.79787 73.4042C4.84708 72.434 4.90332 71.4569 4.95956 70.4938L5.78908 70.6063C5.72581 70.3813 5.59225 69.9244 5.52898 69.6994C6.09137 68.5957 6.37959 67.4007 6.52019 66.1915L7.28645 66.3813C7.13179 66.0439 6.82951 65.355 6.68188 65.0175L7.68012 65.1651C7.70824 64.5465 7.76448 63.3093 7.79963 62.6906L8.68539 62.9156C8.52371 62.5641 8.20736 61.8681 8.0527 61.5166C8.29875 61.5166 8.79787 61.5167 9.05094 61.5237C9.05797 60.7855 9.0861 59.3093 9.09313 58.5711C9.26887 58.6133 9.62739 58.6977 9.80314 58.7469C9.8172 58.1915 9.85235 57.0949 9.86641 56.5465L10.5413 56.5746C10.5202 56.0263 10.485 54.9226 10.4639 54.3743L11.2021 54.7188C11.2161 54.072 11.2443 52.7926 11.2583 52.1458L11.7715 52.4762C12.13 50.9578 12.5378 49.4604 12.8119 47.9349L13.6485 48.1388C13.5009 47.8084 13.2056 47.1406 13.065 46.8102H13.9789C14 46.2267 14.0281 45.0527 14.0422 44.4622L14.7733 44.8769C14.7451 44.2443 14.6959 42.9859 14.6678 42.3532C14.8436 42.4024 15.2021 42.5079 15.3778 42.5571C15.3989 41.9947 15.4411 40.8559 15.4622 40.2864L16.0949 40.5676C16.1089 39.9279 16.13 38.6555 16.1371 38.0228L16.8822 38.3813C16.8541 37.7908 16.8049 36.6168 16.7768 36.0334C16.9666 36.1247 17.3321 36.3216 17.5219 36.413C17.5219 35.8014 17.5219 34.5712 17.5219 33.9596L18.253 34.1494C18.232 33.587 18.2038 32.4622 18.1898 31.8998L18.942 32.0966C18.956 31.5202 18.9701 30.3602 18.9842 29.7768L19.5676 29.9806C19.6028 29.4042 19.6661 28.2443 19.7012 27.6678L20.6924 27.7241C20.5378 27.3866 20.2214 26.7258 20.0668 26.3954L20.9595 26.4727C20.9947 25.8752 21.0509 24.6731 21.0861 24.0685L21.7047 24.406C21.7117 23.7592 21.7188 22.4657 21.7258 21.819L22.4218 22.4165C22.4358 21.7627 22.471 20.4411 22.485 19.7803L23.0544 20.0756C23.1037 19.5061 23.2021 18.3743 23.2513 17.8049C19.4552 17.7627 15.6661 17.7487 11.877 17.8049L11.891 17.3691C11.3778 17.2495 10.3585 17.0035 9.84532 16.877C10.239 16.7504 11.0263 16.4833 11.42 16.3497C11.3075 16.0334 11.0896 15.4007 10.9842 15.0914L11.8277 15.2039C11.8488 14.6134 11.898 13.4323 11.9191 12.8418L12.5448 13.0949C12.5799 12.0826 12.6221 11.0844 12.6573 10.0861L13.2618 10.3181C13.4095 8.01932 14.8998 6.06501 14.9209 3.73812L15.7082 3.82249C15.5747 3.47803 15.3005 2.79612 15.1669 2.45166L16.0386 2.53602Z" fill="#FF7F26"/>
</svg>
