<svg width="146" height="103" viewBox="0 0 146 103" fill="none" xmlns="http://www.w3.org/2000/svg">
<path d="M124.241 0.370831C131.193 0.300533 138.146 0.328646 145.098 0.342706C145.105 0.876976 145.119 1.95254 145.126 2.48681L144.536 2.39544C144.522 2.91565 144.487 3.96309 144.473 4.49033L143.763 4.46222C143.756 5.03867 143.749 6.18453 143.742 6.76098L143.221 6.56415C142.87 8.04042 142.49 9.50965 142.251 11.014C142.097 10.9437 141.794 10.7891 141.64 10.7188C141.64 11.3163 141.64 12.5185 141.64 13.116L141.155 12.9192C140.754 14.3533 140.339 15.7803 140.114 17.2566L139.355 17.2495C139.397 17.4604 139.481 17.8752 139.524 18.0791C139.186 18.9859 138.898 19.9069 138.652 20.8489L138.223 20.5887C138.181 21.0457 138.097 21.9596 138.054 22.4165C137.752 23.2601 137.478 24.1107 137.239 24.9754L136.775 24.8699C136.775 25.4604 136.775 26.6344 136.775 27.2179L136.283 26.8523C136.044 27.7662 135.784 28.6801 135.503 29.587C135.446 30.0228 135.341 30.8945 135.285 31.3304L134.659 31.1124C134.659 31.71 134.652 32.9121 134.645 33.5096L134.167 33.3409C133.963 34.1634 133.731 34.9859 133.485 35.8014C132.726 37.5307 131.917 39.2671 131.706 41.1652C131.559 41.1371 131.264 41.0879 131.116 41.0597C131.137 41.6151 131.172 42.7258 131.193 43.2812L130.673 43.246C130.434 44.0755 130.181 44.9051 129.907 45.7276C129.851 46.1775 129.745 47.0773 129.689 47.5272L129.007 47.3725C129.007 48.1037 129 49.5799 129 50.311C128.754 50.304 128.262 50.2899 128.016 50.2759L128.536 51.5272C128.325 51.5272 127.91 51.5272 127.699 51.5272C127.664 52.2794 127.594 53.7908 127.552 54.543C127.404 54.4868 127.109 54.3743 126.954 54.3181C126.329 56.2653 125.562 58.1775 125.267 60.2232C125.183 60.1458 125.014 60.0052 124.923 59.9349C124.62 62.1704 123.341 64.1388 123.2 66.4095L122.434 66.4727C122.575 66.7961 122.849 67.4358 122.989 67.7522C122.786 67.7522 122.378 67.7381 122.174 67.7381C122.16 70.0439 120.663 71.9701 120.522 74.2548C120.353 74.2056 120.023 74.1142 119.854 74.065C119.847 74.6485 119.819 75.8084 119.805 76.3919L118.926 76.2794C119.06 76.6028 119.32 77.2425 119.453 77.5588C119.221 77.5588 118.757 77.5659 118.518 77.5659C118.532 78.1493 118.568 79.3163 118.582 79.8927C118.399 79.8576 118.04 79.7803 117.858 79.7381C117.815 80.4692 117.717 81.9384 117.668 82.6766H116.866C116.993 82.9859 117.253 83.6186 117.387 83.9349C117.148 83.9349 116.677 83.9349 116.438 83.9349C116.416 84.4692 116.381 85.5377 116.36 86.072C109.302 86.1282 102.244 86.1142 95.1863 86.072C94.9754 76.0615 96.543 66.1353 95.8611 56.1177C95.5729 57.8752 95.0668 59.5623 94.3286 61.1862C93.9982 62.2196 93.8014 63.2812 93.6256 64.3567L92.9156 64.2091L93.4499 65.2565L92.5852 64.7926C92.5219 65.826 92.4587 66.8594 92.3954 67.9068L91.4886 67.8717C91.6292 68.2021 91.9174 68.8559 92.065 69.1792C91.8471 69.1652 91.4112 69.1441 91.1933 69.13C91.1511 69.8541 91.0668 71.2952 91.0246 72.0123L90.4552 71.8998C90.174 73.1581 89.8295 74.4024 89.5624 75.6678C89.4218 75.6256 89.1476 75.5483 89.007 75.5061C88.9789 76.2653 88.9297 77.7838 88.9086 78.55L88.3603 78.2196C88.1001 79.478 87.7627 80.7082 87.4815 81.9666L86.884 81.833C86.8629 82.4094 86.8137 83.5623 86.7926 84.1388L86.2091 83.8154C86.1599 84.3708 86.0545 85.4815 85.9982 86.0368C79.0035 86.1845 72.0018 86.072 65 86.0931C65.007 85.355 65.0211 84.6168 65.0281 83.8857L65.5553 84.1318C65.7803 83.2319 66.0334 82.3391 66.3146 81.4674C66.3779 81.0105 66.4974 80.1036 66.5536 79.6537L67.4534 79.7381C67.3058 79.4007 67.0105 78.7258 66.8629 78.3883L67.7838 78.4305C67.819 77.8541 67.8893 76.7082 67.9244 76.1318L68.5641 76.3216C68.5641 75.7381 68.5571 74.5711 68.5571 73.9877L69.232 74.2126C69.2531 73.6502 69.2882 72.5184 69.3093 71.949L69.935 72.0685C69.942 71.4991 69.9561 70.3743 69.9631 69.8049L70.7293 70.0087C70.7012 69.4323 70.6379 68.2794 70.6098 67.7029L71.362 67.8576C71.3761 67.3093 71.3901 66.2126 71.4042 65.6643L72.0369 65.8892C72.0439 65.2636 72.065 64.0193 72.0721 63.3936L72.7188 63.7381C72.768 63.246 72.8664 62.2689 72.9227 61.7768C73.1968 60.9543 73.464 60.1177 73.71 59.2882L74.4622 59.3233C74.3216 58.9929 74.0545 58.3321 73.9209 57.9947L74.8348 58.0228C74.8559 57.4815 74.9121 56.3919 74.9402 55.8506L75.348 55.9209C75.7065 54.2337 76.2478 52.5958 76.5571 50.9016C76.7539 50.8875 77.1335 50.8664 77.3304 50.8523C77.1828 50.536 76.8805 49.9103 76.7328 49.594L77.6467 49.608C77.6749 48.8769 77.7311 47.4288 77.7592 46.6977C77.9279 46.7258 78.2583 46.782 78.427 46.8102C78.6801 45.5378 78.9824 44.2864 79.2285 43.0211L79.8049 43.3796C79.833 42.6274 79.8963 41.116 79.9244 40.3638C80.1423 40.3567 80.5782 40.3427 80.7961 40.3357L80.3322 39.1124C80.5641 39.0984 81.0281 39.0703 81.2601 39.0562C81.2601 38.4868 81.2671 37.3409 81.2671 36.7645L81.7451 37.0316C81.9982 36.0826 82.2864 35.1476 82.6098 34.2267C82.5536 34.0088 82.4552 33.5729 82.4059 33.355L83.2285 33.5096C83.2777 32.7574 83.369 31.2601 83.4183 30.5079C83.5448 30.543 83.7979 30.6133 83.9244 30.6555C84.2126 29.3901 84.5641 28.1529 84.8524 26.8945L85.2531 27.1406C85.4991 25.6432 85.8928 24.188 86.2443 22.7188L86.8418 22.8313C86.8277 22.29 86.7996 21.2214 86.7856 20.6872L87.3972 20.8207C87.7557 18.5712 88.9859 16.5606 89.1476 14.2759L89.5202 14.4868C89.8576 13.0387 90.2654 11.6046 90.5606 10.1494L91.0035 10.2267C91.1371 9.41827 91.2987 8.61688 91.4886 7.8225C92.0299 6.34623 92.5571 4.86292 93.1828 3.42179C93.1406 3.18278 93.0492 2.71177 93.007 2.47276L93.9138 2.37435C93.8435 2.02286 93.6959 1.31283 93.6186 0.961338L94.5817 1.14412L94.5184 0.335669C101.105 0.349729 107.692 0.307563 114.279 0.349743C114.3 8.56766 114.068 16.7926 114.174 25.0176L113.668 24.8489C113.689 26.1002 113.682 27.3515 113.682 28.6098C113.815 28.5255 114.076 28.3568 114.209 28.2724C114.308 28.8348 114.497 29.9525 114.596 30.5149C114.814 29.3269 114.989 28.1248 115.151 26.9297L115.657 27.0703C115.671 26.5219 115.685 25.4323 115.699 24.884L116.409 25.0668C116.402 24.4833 116.395 23.3093 116.388 22.7258L117.295 22.8102C117.239 22.5712 117.134 22.1002 117.084 21.8612C117.661 20.8348 117.78 19.6678 117.949 18.536L118.343 18.7188C118.779 15.1828 121.049 12.174 121.387 8.65202C121.548 8.70826 121.879 8.82074 122.047 8.86994C122.054 8.2935 122.061 7.12652 122.061 6.55007L122.539 6.71881C122.926 5.24956 123.32 3.78031 123.58 2.28997L124.072 2.54306C124.114 2.00176 124.199 0.912132 124.241 0.370831Z" fill="#FF7F26"/>
<path d="M30.0386 2.53602C30.0738 2.00175 30.13 0.933213 30.1652 0.391913C46.84 0.244285 63.5149 0.384879 80.1897 0.32161C80.1265 1.55887 80.0562 2.79612 79.9929 4.03338L79.3602 3.67485C79.3532 4.26536 79.3321 5.43935 79.318 6.02986L78.6643 5.74164C78.6643 6.3462 78.6572 7.56238 78.6572 8.16695L77.891 7.97011C77.9121 8.54656 77.9613 9.69946 77.9824 10.2759L77.2934 9.94551C77.2723 10.536 77.2372 11.717 77.2161 12.3005L76.485 12.2021C76.5131 12.8067 76.5553 14.0228 76.5764 14.6274L75.8453 14.1845C75.8312 14.7961 75.8101 16.0123 75.7961 16.6168C75.5852 16.6028 75.1704 16.5817 74.9666 16.5676L75.2829 17.7627C70.7908 17.826 66.2987 17.6503 61.8137 17.9033C61.7855 18.8453 61.7504 19.7943 61.7293 20.7434L60.8224 20.7575C60.942 21.0879 61.188 21.7487 61.3075 22.072L60.3796 22.1283C60.4007 22.6836 60.4428 23.8014 60.4639 24.3567C60.2671 24.2935 59.8734 24.1599 59.6766 24.0966C59.6625 24.7082 59.6344 25.9314 59.6203 26.543L58.9666 26.2407C58.9525 26.7891 58.9174 27.8857 58.8963 28.4341L58.2495 28.3427C58.2425 28.9402 58.2355 30.1283 58.2284 30.7188L57.5254 30.3884C57.5254 30.9578 57.5184 32.1037 57.5114 32.6801L56.8717 32.5606C56.8646 33.123 56.8435 34.2478 56.8365 34.8031L56.1195 34.6344C56.1124 35.239 56.1054 36.4552 56.1054 37.0597L55.4516 36.6731C55.4376 37.2917 55.4094 38.5219 55.3954 39.1335L54.7065 38.9016C54.7135 39.4921 54.7276 40.6871 54.7346 41.2847L53.7785 41.0527C53.9051 41.4042 54.1722 42.1001 54.3058 42.4516L53.3989 42.4587C53.3708 43.0211 53.3145 44.1318 53.2864 44.6942L52.5694 44.4973C52.5975 45.116 52.6608 46.3532 52.6959 46.9718C52.5061 46.8594 52.1406 46.6414 51.9578 46.529C51.9297 47.1335 51.8734 48.3356 51.8453 48.9402L51.2056 48.7785C51.2267 49.3479 51.2688 50.4727 51.2899 51.0421L50.4674 50.8172C50.4815 51.4147 50.5026 52.6028 50.5167 53.2003L49.8558 52.9332C49.8418 53.4885 49.8066 54.5922 49.7926 55.1476L49.0966 54.9789C49.1037 55.6045 49.1107 56.8488 49.1107 57.4745L48.4358 57.1089C48.4077 57.7205 48.3585 58.9507 48.3304 59.5694L47.2899 59.3585C47.543 59.71 48.0492 60.3989 48.3022 60.7434L47.079 60.7012C47.0509 61.2987 46.9947 62.5079 46.9736 63.1124L46.3268 62.7539C46.3128 63.3585 46.2776 64.5676 46.2636 65.1722L45.6379 64.891C45.6309 65.4956 45.6239 66.7117 45.6239 67.3163L45.0826 67.0562C44.7943 68.5325 44.4007 69.9877 44.0562 71.4569L43.4446 71.2108C43.4657 71.8154 43.5079 73.0316 43.529 73.6362C43.3462 73.5448 42.9877 73.362 42.8049 73.2706C42.7979 73.847 42.7838 75.007 42.7768 75.5834L42.0738 75.5623C42.1019 76.1318 42.1441 77.2565 42.1652 77.826L41.4059 77.4534C41.3989 78.072 41.3778 79.3163 41.3708 79.942C41.1458 79.9068 40.6889 79.8506 40.4569 79.8154L40.956 81.1159L40.0281 81.0245C40.014 81.6643 39.9929 82.9437 39.9789 83.5834C39.8031 83.4639 39.4446 83.239 39.2618 83.1194C39.2689 83.71 39.2759 84.891 39.2829 85.4815L38.5378 85.376L38.6573 86.1142C30.5799 86.072 22.5026 86.1282 14.4253 86.079C14.5378 85.137 14.6432 84.188 14.7487 83.253C14.9174 83.26 15.2548 83.2671 15.4235 83.2741C15.3954 82.7258 15.3532 81.6362 15.3251 81.0878L16.1265 81.3479C16.1336 80.7293 16.1406 79.4991 16.1476 78.8875L17.4622 79.0281C17.1037 78.6625 16.3866 77.9244 16.0211 77.5588C16.3655 77.6151 17.0474 77.7416 17.3919 77.7978C17.427 77.0316 17.4903 75.485 17.5184 74.7187L18.4464 74.8523C18.3128 74.5078 18.0527 73.8189 17.9191 73.4745L18.7979 73.4042C18.8471 72.434 18.9033 71.4569 18.9596 70.4938L19.7891 70.6063C19.7258 70.3813 19.5923 69.9244 19.529 69.6994C20.0914 68.5957 20.3796 67.4007 20.5202 66.1915L21.2864 66.3813C21.1318 66.0439 20.8295 65.355 20.6819 65.0175L21.6801 65.1651C21.7082 64.5465 21.7645 63.3093 21.7996 62.6906L22.6854 62.9156C22.5237 62.5641 22.2074 61.8681 22.0527 61.5166C22.2987 61.5166 22.7979 61.5167 23.0509 61.5237C23.058 60.7855 23.0861 59.3093 23.0931 58.5711C23.2689 58.6133 23.6274 58.6977 23.8031 58.7469C23.8172 58.1915 23.8524 57.0949 23.8664 56.5465L24.5413 56.5746C24.5202 56.0263 24.485 54.9226 24.4639 54.3743L25.2021 54.7188C25.2161 54.072 25.2443 52.7926 25.2583 52.1458L25.7715 52.4762C26.13 50.9578 26.5378 49.4604 26.8119 47.9349L27.6485 48.1388C27.5009 47.8084 27.2056 47.1406 27.065 46.8102H27.9789C28 46.2267 28.0281 45.0527 28.0422 44.4622L28.7733 44.8769C28.7451 44.2443 28.6959 42.9859 28.6678 42.3532C28.8436 42.4024 29.2021 42.5079 29.3778 42.5571C29.3989 41.9947 29.4411 40.8559 29.4622 40.2864L30.0949 40.5676C30.1089 39.9279 30.13 38.6555 30.1371 38.0228L30.8822 38.3813C30.8541 37.7908 30.8049 36.6168 30.7768 36.0334C30.9666 36.1247 31.3321 36.3216 31.5219 36.413C31.5219 35.8014 31.5219 34.5712 31.5219 33.9596L32.253 34.1494C32.232 33.587 32.2038 32.4622 32.1898 31.8998L32.942 32.0966C32.956 31.5202 32.9701 30.3602 32.9842 29.7768L33.5676 29.9806C33.6028 29.4042 33.6661 28.2443 33.7012 27.6678L34.6924 27.7241C34.5378 27.3866 34.2214 26.7258 34.0668 26.3954L34.9595 26.4727C34.9947 25.8752 35.0509 24.6731 35.0861 24.0685L35.7047 24.406C35.7117 23.7592 35.7188 22.4657 35.7258 21.819L36.4218 22.4165C36.4358 21.7627 36.471 20.4411 36.485 19.7803L37.0544 20.0756C37.1037 19.5061 37.2021 18.3743 37.2513 17.8049C33.4552 17.7627 29.6661 17.7487 25.877 17.8049L25.891 17.3691C25.3778 17.2495 24.3585 17.0035 23.8453 16.877C24.239 16.7504 25.0263 16.4833 25.42 16.3497C25.3075 16.0334 25.0896 15.4007 24.9842 15.0914L25.8277 15.2039C25.8488 14.6134 25.898 13.4323 25.9191 12.8418L26.5448 13.0949C26.5799 12.0826 26.6221 11.0844 26.6573 10.0861L27.2618 10.3181C27.4095 8.01932 28.8998 6.06501 28.9209 3.73812L29.7082 3.82249C29.5747 3.47803 29.3005 2.79612 29.1669 2.45166L30.0386 2.53602Z" fill="#FF7F26"/>
<path d="M0.20379 97.8865L0.111475 97C42.4007 97.0296 84.6916 97.0147 126.981 97.0147C126.986 98.9946 126.99 100.982 127 102.977C84.6672 102.925 42.3327 103.117 0 102.873C0.00696721 101.056 0.00696721 99.2384 0 97.4284L0.20379 97.8865Z" fill="#FF7F26"/>
</svg>
